<svg version="1.1" id="Layer_1" xmlns="http://www.w3.org/2000/svg" xmlns:xlink="http://www.w3.org/1999/xlink" x="0px" y="0px"
	 width="100%" viewBox="0 0 1920 1080" enable-background="new 0 0 1920 1080" xml:space="preserve">
<path fill="#000000" opacity="1.000000" stroke="none" 
	d="
M1114.000000,1081.000000 
	C742.666748,1081.000000 371.833466,1081.000000 1.000149,1081.000000 
	C1.000100,721.000122 1.000100,361.000275 1.000050,1.000294 
	C640.999756,1.000196 1280.999512,1.000196 1920.999512,1.000098 
	C1920.999634,360.999664 1920.999634,720.999329 1920.999756,1080.999512 
	C1652.166626,1081.000000 1383.333374,1081.000000 1114.000000,1081.000000 
M512.333374,621.830139 
	C508.569336,620.180969 504.805298,618.531738 500.669800,616.260681 
	C496.059631,613.710388 491.393250,611.255676 486.854004,608.584900 
	C481.525391,605.449646 476.307281,602.126587 470.983093,598.162231 
	C466.152557,594.166077 461.271362,590.229004 456.510345,586.151733 
	C453.635803,583.690002 450.609528,581.285156 448.244415,578.373169 
	C442.802246,571.672363 437.695892,564.697327 432.506256,557.793701 
	C429.663696,554.012268 426.461182,550.400940 424.243988,546.271118 
	C419.807831,538.008057 415.937775,529.441101 411.966919,520.198120 
	C411.312622,518.713013 410.549713,517.265137 410.024872,515.735596 
	C408.574432,511.508514 407.223450,507.247345 405.969574,502.175781 
	C404.924255,496.449921 403.878967,490.724030 402.952301,484.316925 
	C402.319733,483.846283 401.687164,483.375671 401.017212,482.983795 
	C401.017212,482.983795 401.095367,482.945160 401.015411,482.034363 
	C400.954834,478.356262 400.894257,474.678162 400.968475,470.209351 
	C400.256744,466.805725 399.545044,463.402100 398.971100,459.072510 
	C398.925415,453.714661 398.879730,448.356842 399.004395,442.220612 
	C399.614136,439.812836 400.223846,437.405060 400.970520,434.122986 
	C401.663483,429.117920 402.356476,424.112854 403.745819,418.640747 
	C404.441711,414.759644 405.137604,410.878571 406.205841,406.282928 
	C407.509033,401.203217 408.812225,396.123505 410.850281,390.975098 
	C412.935730,386.333466 415.021210,381.691864 417.743042,376.669403 
	C420.377991,371.979462 423.040588,367.304779 425.638855,362.594604 
	C427.597260,359.044495 429.473297,355.448975 431.898468,351.318176 
	C435.629852,346.456848 439.064270,341.325806 443.170319,336.804779 
	C447.932037,331.561981 453.018524,326.539490 458.437286,321.984375 
	C468.134308,313.832916 466.209564,300.833954 460.748260,292.348663 
	C458.708099,289.178864 455.732178,287.593475 451.509460,287.906525 
	C439.000397,288.833984 426.397919,288.788452 413.952423,290.191467 
	C404.853424,291.217224 395.944702,293.930756 386.138794,295.979553 
	C377.076202,298.950378 368.013611,301.921204 358.183685,304.981842 
	C353.774597,306.949432 349.365479,308.917053 344.198944,310.980469 
	C340.095886,312.971649 335.992828,314.962860 331.263184,317.233246 
	C329.159607,318.451965 327.056030,319.670685 324.237640,320.996674 
	C320.808960,323.295166 317.380280,325.593658 313.254272,327.995972 
	C311.503754,329.052704 309.753204,330.109436 307.330841,331.233337 
	C304.537415,333.453583 301.743958,335.673828 298.355194,338.155884 
	C297.221191,339.067383 296.087158,339.978882 294.340973,341.173035 
	C292.525635,342.765137 290.710327,344.357239 288.291382,346.218628 
	C286.511078,347.777039 284.730774,349.335449 282.354340,351.162231 
	C280.887146,352.738190 279.419952,354.314148 277.339661,356.174286 
	C275.209686,358.414368 273.079742,360.654449 270.330475,363.183411 
	C268.537262,365.086792 266.744019,366.990143 264.360046,369.158325 
	C263.202911,370.423950 262.045746,371.689545 260.289032,373.221741 
	C259.490540,374.464630 258.692047,375.707520 257.287262,377.223083 
	C255.487595,379.467224 253.687912,381.711334 251.292297,384.219025 
	C250.179291,385.776062 249.066284,387.333099 247.329910,389.186218 
	C245.869995,392.088776 244.410080,394.991364 242.319717,398.186646 
	C240.529953,400.422363 238.740173,402.658081 236.333069,405.238739 
	C235.518295,407.144165 234.703522,409.049591 233.296021,411.217010 
	C232.493240,412.463287 231.690475,413.709595 230.298096,415.272949 
	C229.829895,416.498688 229.361694,417.724426 228.304352,419.265503 
	C227.501251,420.826630 226.698166,422.387787 225.290695,424.284210 
	C224.489517,426.174744 223.688339,428.065277 222.275314,430.303345 
	C221.814789,431.852356 221.354279,433.401367 220.291153,435.283112 
	C219.249527,437.522339 218.207901,439.761566 217.011459,442.733154 
	C216.305573,444.805603 215.599686,446.878052 214.263672,449.320801 
	C212.804398,453.866058 211.345108,458.411346 209.246048,463.356750 
	C208.461899,466.554565 207.677750,469.752411 206.242020,473.368011 
	C205.550446,476.913147 204.858871,480.458282 203.794403,484.716583 
	C202.918320,489.811981 202.042221,494.907349 200.778900,500.734009 
	C200.241379,504.490204 199.703857,508.246368 199.029083,512.885254 
	C198.741730,518.590515 198.454376,524.295715 198.028885,530.928528 
	C198.074829,536.952820 198.120773,542.977051 198.028381,549.921143 
	C198.407837,556.615051 198.787277,563.308960 199.060410,570.829773 
	C200.364243,578.034607 201.579483,585.256897 202.987686,592.441223 
	C208.295349,619.519775 217.701187,645.124878 232.275940,668.546265 
	C239.932617,680.850464 248.607742,692.598694 257.634033,703.953186 
	C269.035400,718.295471 282.241486,731.065796 297.045990,741.852234 
	C307.953461,749.799255 319.424377,757.150879 331.310944,763.524353 
	C342.417236,769.479309 354.402039,773.795898 366.679962,779.179016 
	C374.119232,781.397034 381.558472,783.615112 389.781342,785.996582 
	C395.187592,787.275452 400.593842,788.554260 406.867554,789.971985 
	C412.244598,790.592590 417.621674,791.213196 423.855743,791.972534 
	C427.903839,792.259644 431.951904,792.546814 436.924561,792.972595 
	C441.948608,792.925964 446.972626,792.879333 452.904663,792.971558 
	C456.269012,792.925598 459.633331,792.879578 463.881073,792.971130 
	C466.932922,792.688110 469.984772,792.405029 473.933716,792.021851 
	C478.971741,791.383728 484.009766,790.745605 489.859833,790.019409 
	C491.905640,789.624146 493.951447,789.228882 496.810822,788.969910 
	C498.873627,788.591125 500.936401,788.212341 503.770355,787.968079 
	C505.513306,787.589905 507.256287,787.211792 509.714233,786.730530 
	C511.475555,786.098206 513.236877,785.465881 515.739990,784.967834 
	C517.509460,784.347900 519.278931,783.727966 521.774109,783.019714 
	C522.861389,782.720276 523.948669,782.420898 525.784363,782.020264 
	C527.557556,781.363953 529.330811,780.707642 531.737610,780.009338 
	C532.869324,779.613342 534.000977,779.217346 535.958740,778.884766 
	C539.006592,777.607605 542.054443,776.330505 545.840088,774.983643 
	C548.595764,773.672180 551.351379,772.360718 554.824585,770.986694 
	C556.549133,770.268921 558.273621,769.551147 560.693054,768.747986 
	C563.748657,766.967712 566.804321,765.187439 570.403137,763.110229 
	C571.483337,762.536926 572.563477,761.963623 574.237305,761.182861 
	C575.157654,760.732910 576.077942,760.282959 577.666931,759.762207 
	C579.791992,758.212891 581.916992,756.663513 584.742493,755.002747 
	C586.844727,753.703735 588.946960,752.404724 591.679443,750.814331 
	C594.802673,748.578979 597.925903,746.343628 601.655151,743.829285 
	C603.139954,742.568481 604.624756,741.307678 606.693787,739.794617 
	C607.810974,738.899780 608.928223,738.004883 610.651917,736.831848 
	C612.449890,735.257996 614.247864,733.684143 616.656006,731.829102 
	C619.141663,729.234497 621.627319,726.639954 624.691162,723.799255 
	C625.809448,722.569580 626.927734,721.339905 628.742554,719.998474 
	C630.844604,717.700989 632.946716,715.403442 635.660706,712.825134 
	C637.790527,710.251770 639.920349,707.678406 642.665649,704.822571 
	C645.814514,700.897217 648.963379,696.971863 652.730225,692.765381 
	C654.836548,689.545288 656.942871,686.325195 659.679932,682.807617 
	C663.823242,675.885864 667.966492,668.964111 672.724487,661.704651 
	C676.169006,654.697510 679.699646,647.731140 683.034912,640.672363 
	C686.712280,632.889526 685.715698,628.509216 679.963379,622.391968 
	C673.113403,615.107422 664.909790,614.582092 656.237488,617.506409 
	C651.305969,619.169250 646.738708,621.912292 641.184814,624.026245 
	C640.213623,624.131470 639.204834,624.102600 638.277344,624.363281 
	C631.510803,626.265259 624.760498,628.225281 617.253113,630.296204 
	C612.835876,631.252502 608.418640,632.208862 603.145752,633.026123 
	C598.098022,633.739624 593.050293,634.453125 587.084839,635.027039 
	C583.056885,635.073608 579.028870,635.120178 574.084473,635.027100 
	C570.068604,634.977539 566.052795,634.928040 561.670654,634.179321 
	C558.447083,633.841431 555.223450,633.503540 551.179382,633.023987 
	C546.119629,632.071472 541.059937,631.118958 535.348328,629.833374 
	C534.089661,629.226562 532.883789,628.441650 531.561401,628.049805 
	C528.751099,627.216919 525.880127,626.588562 522.622375,625.231995 
	C519.414917,624.210022 516.207458,623.187988 512.333374,621.830139 
M1272.000000,499.500397 
	C1273.177612,500.666748 1274.335327,502.822510 1275.536133,502.846802 
	C1287.860962,503.095856 1300.194580,503.096130 1312.519287,502.844055 
	C1313.702148,502.819885 1315.049194,500.758484 1315.924316,499.389801 
	C1316.480591,498.519867 1316.241943,497.169128 1316.467896,496.056000 
	C1318.296753,487.045807 1320.245850,478.058868 1321.975830,469.029907 
	C1324.494995,455.882080 1326.862305,442.705170 1329.294312,429.540649 
	C1329.862793,429.569946 1330.431396,429.599274 1331.000000,429.628571 
	C1331.000000,438.683258 1330.879395,447.739960 1331.028198,456.792206 
	C1331.254028,470.542542 1331.666626,484.289764 1331.999512,498.038330 
	C1332.003540,498.204865 1332.000488,498.371552 1332.000732,498.538177 
	C1332.004272,501.675476 1333.220215,503.147675 1336.707153,503.072296 
	C1346.366455,502.863586 1356.033325,503.000000 1365.697144,503.000000 
	C1368.448975,503.000000 1371.200684,503.000000 1374.544312,503.000000 
	C1370.364868,464.185944 1366.267334,426.133209 1362.175781,388.135254 
	C1342.721924,388.135254 1324.092041,388.135254 1305.205811,388.135254 
	C1301.399292,411.617828 1297.607056,435.012787 1293.592529,459.779114 
	C1292.214600,452.273804 1291.098022,446.241516 1290.000977,440.205688 
	C1286.994629,423.668213 1284.048462,407.119232 1280.872192,390.614441 
	C1280.671143,389.569244 1278.710449,388.123688 1277.555908,388.112091 
	C1261.228882,387.948242 1244.899292,387.948914 1228.572144,388.107300 
	C1227.378540,388.118866 1225.269531,389.541046 1225.156494,390.493713 
	C1223.923828,400.880798 1222.989990,411.303741 1222.005005,421.719727 
	C1221.296387,429.214203 1220.752197,436.726227 1219.920654,444.206665 
	C1218.714966,455.051880 1217.254272,465.868561 1216.019531,476.710754 
	C1215.033447,485.370941 1214.222168,494.051056 1213.329834,502.754944 
	C1227.208008,502.754944 1240.963867,502.754944 1255.205078,502.754944 
	C1255.922729,477.545532 1256.633789,452.565308 1257.374268,426.552032 
	C1257.941040,429.103577 1258.317261,430.636932 1258.619629,432.184692 
	C1260.755371,443.115417 1262.818726,454.060638 1265.017212,464.978668 
	C1267.277710,476.204468 1269.665405,487.404663 1272.000000,499.500397 
M748.000000,617.347534 
	C747.997375,625.472778 751.688904,631.446655 758.278381,636.074219 
	C767.715210,642.701050 778.716980,643.819763 789.553345,644.843689 
	C800.567383,645.884521 811.738037,645.225342 822.766663,646.168884 
	C829.177551,646.717346 836.491577,647.134949 839.282349,655.954407 
	C836.772766,657.294250 834.382568,659.383545 831.705383,659.859558 
	C819.814941,661.974060 807.752808,662.184021 796.011597,659.371826 
	C784.250305,656.554749 772.751648,652.640991 761.319641,649.261658 
	C756.344055,658.886169 750.895142,669.426331 745.364807,680.123962 
	C749.325562,681.795532 753.090515,683.561462 756.978333,684.993774 
	C771.335266,690.283386 786.138184,692.979797 801.446289,694.219421 
	C819.091736,695.648254 836.351990,695.104248 853.323059,689.972839 
	C862.379456,687.234436 870.509399,682.821167 874.583740,673.751526 
	C876.776306,668.870728 878.004883,663.511780 879.282593,658.274536 
	C881.891602,647.580261 876.806702,636.645691 867.713135,630.968750 
	C857.668335,624.698120 846.314941,623.016968 834.894836,622.099060 
	C824.851440,621.291870 814.723938,621.569214 804.666382,620.884827 
	C800.578735,620.606750 796.574524,619.066040 792.538940,618.073059 
	C789.764465,617.390442 787.299805,615.605347 788.231201,612.823792 
	C788.892944,610.847839 791.470337,608.650085 793.568909,608.159119 
	C806.793335,605.065002 820.026611,605.500732 833.281616,608.607483 
	C844.884399,611.326904 856.253601,614.484802 866.171387,621.190308 
	C870.097717,610.605591 873.897400,600.362244 877.771973,589.916931 
	C875.796143,589.120911 873.975952,588.520081 872.273315,587.680847 
	C857.479736,580.389343 841.584839,576.485229 825.396179,575.275574 
	C809.117798,574.059265 792.726990,574.415833 776.754089,579.845154 
	C759.544556,585.694702 747.850525,596.460999 748.000000,617.347534 
M821.200256,387.002045 
	C817.284607,386.668060 813.365417,386.012054 809.453796,386.054047 
	C789.212036,386.271179 768.972656,386.704193 748.731079,386.957275 
	C745.910889,386.992523 744.727966,388.043213 744.996643,390.812958 
	C745.344055,394.392212 745.945374,397.973083 745.955750,401.554657 
	C746.036133,429.188049 746.052734,456.821960 745.958618,484.455231 
	C745.938049,490.492584 745.393372,496.528137 745.068176,503.000000 
	C746.939148,503.000000 748.562683,503.000000 750.186279,503.000000 
	C769.008545,503.000000 787.832275,502.854156 806.652466,503.052643 
	C818.660645,503.179260 830.323364,501.817932 841.421204,496.997986 
	C855.381531,490.934753 865.936218,481.557556 871.057312,466.773621 
	C874.917847,455.628723 875.993286,444.331299 874.048950,432.655823 
	C872.378296,422.623718 869.299805,413.323456 862.219421,405.718628 
	C853.733765,396.604523 842.678833,392.266724 831.058899,389.024567 
	C828.120422,388.204681 825.097717,387.686462 821.200256,387.002045 
M1607.000000,486.512573 
	C1607.000000,450.753876 1607.000000,414.995148 1607.000000,379.000000 
	C1597.143188,379.000000 1587.837646,379.000000 1578.532104,379.000000 
	C1569.875854,379.000000 1569.887695,378.998535 1570.978882,387.744812 
	C1571.101685,388.729340 1570.999634,389.742035 1570.999756,390.741669 
	C1571.000000,400.071747 1570.869995,409.404449 1571.055542,418.730835 
	C1571.146729,423.317566 1571.822144,427.892700 1572.233154,432.473083 
	C1563.702759,419.838989 1552.460327,414.541229 1537.596558,414.811981 
	C1525.786133,415.027069 1517.388184,420.215881 1511.016479,429.346893 
	C1499.453369,445.917114 1498.032227,463.940369 1505.283325,482.421448 
	C1510.661621,496.129089 1521.726074,503.941681 1534.341797,504.904236 
	C1549.600586,506.068481 1562.519287,501.539368 1570.505493,487.062561 
	C1570.505493,492.530762 1570.505493,497.530762 1570.505493,502.716064 
	C1582.329956,502.716064 1594.552979,502.716064 1607.000000,502.716064 
	C1607.000000,497.458252 1607.000000,492.482605 1607.000000,486.512573 
M1195.031372,488.362762 
	C1186.337769,476.416718 1177.644287,464.470642 1168.875000,452.420593 
	C1182.162842,440.303802 1195.075073,428.529480 1208.815430,416.000000 
	C1193.249756,416.000000 1179.101074,416.215393 1164.966187,415.870972 
	C1160.630981,415.765350 1158.484009,417.958038 1155.984985,420.704010 
	C1148.615112,428.802002 1141.049316,436.721741 1133.000000,445.308807 
	C1133.000000,442.897583 1133.000000,441.294891 1133.000000,439.692200 
	C1133.000000,421.033722 1132.994629,402.375214 1133.006470,383.716736 
	C1133.008057,381.325012 1133.305664,378.946381 1129.667603,378.971710 
	C1118.223999,379.051392 1106.779419,379.001038 1095.500000,379.001038 
	C1095.500000,420.507538 1095.500000,461.568848 1095.500000,502.789978 
	C1107.821533,502.789978 1120.224487,502.789978 1133.000000,502.789978 
	C1133.000000,497.465118 1132.959961,492.340759 1133.033081,487.218018 
	C1133.047974,486.176971 1133.145630,484.789734 1133.789673,484.162811 
	C1137.309937,480.736084 1141.012695,477.496857 1144.599121,474.241730 
	C1145.317139,474.935181 1146.213867,475.514191 1146.719482,476.334290 
	C1151.442749,483.996124 1156.027344,491.744629 1160.836792,499.351196 
	C1161.769653,500.826447 1163.484497,502.812500 1164.871826,502.839294 
	C1178.422852,503.101227 1191.980957,502.997070 1206.334961,502.997070 
	C1202.355225,497.863983 1198.905518,493.414551 1195.031372,488.362762 
M955.954407,495.514160 
	C956.867615,499.216980 959.576721,500.855011 962.950989,502.060547 
	C973.560181,505.851044 984.176086,503.744690 995.000000,502.786438 
	C995.000000,500.399597 995.031677,498.415680 994.993591,496.433105 
	C994.906006,491.870636 996.330383,486.968353 990.773621,483.968262 
	C989.511414,483.286835 989.160400,480.202362 989.066589,478.192444 
	C988.588928,467.958282 988.916870,457.653595 987.868958,447.486328 
	C986.123535,430.551422 976.946289,421.481476 961.278198,417.116638 
	C949.782715,413.914246 937.929077,414.229340 926.139587,415.992584 
	C910.308716,418.360199 898.654358,427.281464 888.660278,439.354523 
	C896.452576,444.315674 903.905701,449.060883 910.998718,453.576813 
	C904.924683,456.091797 898.864990,457.628876 893.926636,460.872864 
	C886.476440,465.766876 883.966492,473.571991 885.017395,482.381165 
	C886.010254,490.703796 890.214905,497.156982 897.688843,500.784973 
	C906.036926,504.837280 915.262451,504.609375 924.198181,503.796417 
	C928.630432,503.393188 932.985596,501.149719 937.175598,499.288452 
	C945.025574,495.801300 949.231079,488.970398 952.117249,481.605103 
	C953.216858,486.055878 954.312866,490.491699 955.954407,495.514160 
M1449.924927,415.407959 
	C1439.717529,415.610260 1429.366211,414.820587 1419.340210,416.273956 
	C1407.645386,417.969208 1397.817017,424.037109 1391.218384,434.390442 
	C1385.451782,443.438263 1384.530029,453.448853 1384.941772,463.865295 
	C1385.376709,474.871185 1389.266357,484.418976 1396.823975,492.195526 
	C1406.079102,501.718689 1418.515015,503.879028 1430.967651,504.839203 
	C1438.139893,505.392242 1445.555542,505.022583 1452.641846,503.796814 
	C1459.161011,502.669128 1465.933350,500.808807 1471.640991,497.583954 
	C1491.394287,486.423126 1494.820435,468.249939 1491.701294,450.082794 
	C1488.118286,429.213562 1471.237793,417.912872 1449.924927,415.407959 
M1130.642334,635.117920 
	C1126.037354,621.064819 1115.877075,612.670837 1102.371216,608.054504 
	C1088.690430,603.378296 1074.507324,603.834167 1060.617676,606.334167 
	C1046.377441,608.897339 1035.349365,616.547424 1029.771851,630.669556 
	C1026.295288,639.471741 1025.596191,648.325989 1026.815552,657.803406 
	C1028.571289,671.450745 1038.636353,686.671997 1052.861694,691.039795 
	C1072.153198,696.963074 1091.411743,696.602722 1110.226929,689.756042 
	C1119.469360,686.392883 1126.850220,679.923767 1131.227417,670.369385 
	C1121.897583,666.619446 1112.883789,662.947205 1103.804321,659.444946 
	C1103.106567,659.175781 1101.899414,660.016296 1101.009399,660.491516 
	C1096.530518,662.883057 1092.323608,666.552490 1087.567627,667.502319 
	C1076.385986,669.735291 1064.916016,668.414917 1061.074707,653.999512 
	C1084.710571,653.999512 1108.218262,653.999512 1132.442505,653.999512 
	C1131.924072,647.599792 1131.450439,641.751648 1130.642334,635.117920 
M1685.500000,464.000000 
	C1697.926636,464.000000 1710.353149,464.000000 1723.000000,464.000000 
	C1723.000000,460.465851 1722.871094,457.482971 1723.023804,454.514557 
	C1723.522705,444.808807 1719.388916,436.507874 1713.155640,430.027008 
	C1703.802979,420.303040 1691.641113,415.285065 1677.984131,415.082764 
	C1669.916260,414.963257 1661.772217,415.144073 1653.776611,416.122925 
	C1641.874023,417.580048 1631.890991,423.053833 1625.025879,433.166779 
	C1618.321167,443.043274 1616.174927,453.839386 1617.812012,465.853943 
	C1619.123657,475.481964 1622.162842,483.933167 1628.626709,491.117676 
	C1638.047363,501.588501 1650.927734,503.952240 1663.863037,504.761414 
	C1672.940918,505.329285 1682.327759,504.534912 1691.273682,502.792938 
	C1704.611694,500.195648 1715.865967,493.739044 1722.382568,480.385193 
	C1712.636353,476.527710 1703.176025,472.783356 1693.728882,469.044220 
	C1679.946533,483.877899 1653.582642,480.359863 1652.516357,464.000000 
	C1663.181641,464.000000 1673.840820,464.000000 1685.500000,464.000000 
M1180.574951,633.044739 
	C1183.400757,632.029785 1186.157349,630.455200 1189.064209,630.096497 
	C1201.956055,628.505554 1213.681396,632.744507 1225.719482,638.314880 
	C1229.271362,634.588989 1232.876099,630.688293 1236.609985,626.915283 
	C1244.378296,619.065308 1244.406006,619.093689 1235.162842,613.659302 
	C1234.880981,613.493530 1234.645752,613.229858 1234.348999,613.110352 
	C1211.138306,603.766785 1187.372070,601.384949 1163.382446,609.166443 
	C1150.436157,613.365906 1143.386108,620.892517 1143.224243,632.537476 
	C1142.992188,649.230408 1150.470093,654.823792 1167.471558,656.765747 
	C1176.232300,657.766357 1185.270264,656.308838 1194.184692,656.016418 
	C1197.013062,655.923645 1200.014648,655.433167 1202.625000,656.194397 
	C1204.640625,656.782104 1206.503540,658.826416 1207.697998,660.694031 
	C1208.030151,661.213257 1206.010376,664.214355 1204.603027,664.686462 
	C1200.240967,666.150024 1195.529419,668.188232 1191.179443,667.751770 
	C1180.621460,666.692505 1170.149170,664.237305 1161.081299,658.343689 
	C1158.262085,656.511292 1156.930420,657.072510 1155.408813,659.165344 
	C1150.572998,665.816711 1145.830078,672.535583 1140.838501,679.526184 
	C1154.528198,689.206116 1170.173340,693.348083 1186.438477,694.821411 
	C1197.335938,695.808594 1208.340576,695.080139 1219.103149,692.079407 
	C1227.176880,689.828308 1234.508301,686.765991 1239.724609,679.816467 
	C1243.114624,675.299805 1243.600952,670.121521 1244.217163,664.745850 
	C1244.959717,658.269287 1242.374512,649.977356 1236.640137,645.860718 
	C1229.381226,640.649597 1221.026733,639.627563 1212.756104,639.188293 
	C1203.553101,638.699585 1194.274536,639.741577 1185.025269,639.970154 
	C1179.955688,640.095459 1179.062744,638.821106 1180.574951,633.044739 
M1002.727051,667.005554 
	C996.571167,666.198608 993.686035,661.764648 993.183960,656.478271 
	C992.485901,649.128662 993.008301,641.663208 993.008301,633.858093 
	C1001.986084,634.312866 1010.431885,634.740723 1018.649780,635.156982 
	C1018.649780,625.221008 1018.649780,616.149231 1018.649780,606.891846 
	C1009.036987,606.891846 999.773376,606.891846 990.609253,606.891846 
	C995.960144,601.245422 1001.271606,595.640503 1007.400818,589.172729 
	C991.137390,589.172729 976.671448,589.172729 962.220398,589.172729 
	C961.606567,597.132568 953.097290,605.881165 945.352051,606.119934 
	C944.211853,606.155151 942.179626,607.761841 942.153564,608.686340 
	C941.907593,617.425842 942.007324,626.175049 942.007324,635.300293 
	C947.436035,635.300293 952.178833,635.300293 958.000061,635.300293 
	C958.000061,647.098816 957.822083,658.503418 958.053589,669.899719 
	C958.256531,679.889893 966.604065,690.392273 975.733215,692.935242 
	C988.039917,696.363403 1000.469971,695.019287 1012.871704,693.857178 
	C1013.995056,693.751953 1015.827454,691.984558 1015.860535,690.942383 
	C1016.112427,683.006409 1015.998474,675.058899 1015.998474,668.154114 
	C1011.470642,667.766907 1007.523315,667.429382 1002.727051,667.005554 
M1057.192505,418.277588 
	C1049.924683,422.650879 1044.079834,428.242188 1041.202271,438.011688 
	C1039.519653,429.911072 1038.100342,423.077484 1036.734131,416.500000 
	C1025.793457,416.500000 1015.042236,416.500000 1004.500000,416.500000 
	C1004.500000,445.236633 1004.500000,473.976685 1004.500000,502.779785 
	C1017.273438,502.779785 1030.037109,502.779785 1042.000000,502.779785 
	C1042.000000,491.666687 1041.928101,480.778503 1042.046021,469.892365 
	C1042.079224,466.824310 1042.432739,463.713837 1043.050537,460.707306 
	C1044.473145,453.785034 1049.649780,448.975006 1056.812500,449.152954 
	C1063.917236,449.329529 1070.990723,450.759430 1078.635254,451.708862 
	C1080.156128,440.433472 1081.785034,428.356873 1083.588989,414.982330 
	C1074.127197,416.103088 1066.042358,417.060760 1057.192505,418.277588 
M932.000000,642.500244 
	C932.000000,630.363647 932.000000,618.227051 932.000000,606.316284 
	C919.553589,606.316284 906.817261,606.316284 894.500000,606.316284 
	C894.500000,635.327942 894.500000,664.023499 894.500000,692.772278 
	C907.206116,692.772278 919.939087,692.772278 932.000000,692.772278 
	C932.000000,676.190613 932.000000,659.845337 932.000000,642.500244 
M912.581360,597.997009 
	C914.321838,597.664734 916.063049,597.046570 917.802734,597.050659 
	C924.563721,597.066589 929.203796,593.207458 931.524658,587.713318 
	C934.304504,581.132507 934.592651,573.801941 929.341003,567.964661 
	C923.256958,561.202332 915.445984,559.981323 906.685181,561.911682 
	C899.390747,563.518799 894.271118,568.098755 893.124939,577.452820 
	C891.984070,586.763672 896.276733,593.817078 903.800781,595.993225 
	C906.408325,596.747375 909.071045,597.310791 912.581360,597.997009 
z"/>
<path fill="#FFFFFF" opacity="1.000000" stroke="none" 
	d="
M1271.998657,499.058228 
	C1269.665405,487.404663 1267.277710,476.204468 1265.017212,464.978668 
	C1262.818726,454.060638 1260.755371,443.115417 1258.619629,432.184692 
	C1258.317261,430.636932 1257.941040,429.103577 1257.374268,426.552032 
	C1256.633789,452.565308 1255.922729,477.545532 1255.205078,502.754944 
	C1240.963867,502.754944 1227.208008,502.754944 1213.329834,502.754944 
	C1214.222168,494.051056 1215.033447,485.370941 1216.019531,476.710754 
	C1217.254272,465.868561 1218.714966,455.051880 1219.920654,444.206665 
	C1220.752197,436.726227 1221.296387,429.214203 1222.005005,421.719727 
	C1222.989990,411.303741 1223.923828,400.880798 1225.156494,390.493713 
	C1225.269531,389.541046 1227.378540,388.118866 1228.572144,388.107300 
	C1244.899292,387.948914 1261.228882,387.948242 1277.555908,388.112091 
	C1278.710449,388.123688 1280.671143,389.569244 1280.872192,390.614441 
	C1284.048462,407.119232 1286.994629,423.668213 1290.000977,440.205688 
	C1291.098022,446.241516 1292.214600,452.273804 1293.592529,459.779114 
	C1297.607056,435.012787 1301.399292,411.617828 1305.205811,388.135254 
	C1324.092041,388.135254 1342.721924,388.135254 1362.175781,388.135254 
	C1366.267334,426.133209 1370.364868,464.185944 1374.544312,503.000000 
	C1371.200684,503.000000 1368.448975,503.000000 1365.697144,503.000000 
	C1356.033325,503.000000 1346.366455,502.863586 1336.707153,503.072296 
	C1333.220215,503.147675 1332.004272,501.675476 1332.000732,498.538177 
	C1332.000488,498.371552 1332.003540,498.204865 1331.999512,498.038330 
	C1331.666626,484.289764 1331.254028,470.542542 1331.028198,456.792206 
	C1330.879395,447.739960 1331.000000,438.683258 1331.000000,429.628571 
	C1330.431396,429.599274 1329.862793,429.569946 1329.294312,429.540649 
	C1326.862305,442.705170 1324.494995,455.882080 1321.975830,469.029907 
	C1320.245850,478.058868 1318.296753,487.045807 1316.467896,496.056000 
	C1316.241943,497.169128 1316.480591,498.519867 1315.924316,499.389801 
	C1315.049194,500.758484 1313.702148,502.819885 1312.519287,502.844055 
	C1300.194580,503.096130 1287.860962,503.095856 1275.536133,502.846802 
	C1274.335327,502.822510 1273.177612,500.666748 1271.998657,499.058228 
z"/>
<path fill="#FFFFFF" opacity="1.000000" stroke="none" 
	d="
M748.000000,616.884338 
	C747.850525,596.460999 759.544556,585.694702 776.754089,579.845154 
	C792.726990,574.415833 809.117798,574.059265 825.396179,575.275574 
	C841.584839,576.485229 857.479736,580.389343 872.273315,587.680847 
	C873.975952,588.520081 875.796143,589.120911 877.771973,589.916931 
	C873.897400,600.362244 870.097717,610.605591 866.171387,621.190308 
	C856.253601,614.484802 844.884399,611.326904 833.281616,608.607483 
	C820.026611,605.500732 806.793335,605.065002 793.568909,608.159119 
	C791.470337,608.650085 788.892944,610.847839 788.231201,612.823792 
	C787.299805,615.605347 789.764465,617.390442 792.538940,618.073059 
	C796.574524,619.066040 800.578735,620.606750 804.666382,620.884827 
	C814.723938,621.569214 824.851440,621.291870 834.894836,622.099060 
	C846.314941,623.016968 857.668335,624.698120 867.713135,630.968750 
	C876.806702,636.645691 881.891602,647.580261 879.282593,658.274536 
	C878.004883,663.511780 876.776306,668.870728 874.583740,673.751526 
	C870.509399,682.821167 862.379456,687.234436 853.323059,689.972839 
	C836.351990,695.104248 819.091736,695.648254 801.446289,694.219421 
	C786.138184,692.979797 771.335266,690.283386 756.978333,684.993774 
	C753.090515,683.561462 749.325562,681.795532 745.364807,680.123962 
	C750.895142,669.426331 756.344055,658.886169 761.319641,649.261658 
	C772.751648,652.640991 784.250305,656.554749 796.011597,659.371826 
	C807.752808,662.184021 819.814941,661.974060 831.705383,659.859558 
	C834.382568,659.383545 836.772766,657.294250 839.282349,655.954407 
	C836.491577,647.134949 829.177551,646.717346 822.766663,646.168884 
	C811.738037,645.225342 800.567383,645.884521 789.553345,644.843689 
	C778.716980,643.819763 767.715210,642.701050 758.278381,636.074219 
	C751.688904,631.446655 747.997375,625.472778 748.000000,616.884338 
z"/>
<path fill="#FFFFFF" opacity="1.000000" stroke="none" 
	d="
M821.656982,387.015839 
	C825.097717,387.686462 828.120422,388.204681 831.058899,389.024567 
	C842.678833,392.266724 853.733765,396.604523 862.219421,405.718628 
	C869.299805,413.323456 872.378296,422.623718 874.048950,432.655823 
	C875.993286,444.331299 874.917847,455.628723 871.057312,466.773621 
	C865.936218,481.557556 855.381531,490.934753 841.421204,496.997986 
	C830.323364,501.817932 818.660645,503.179260 806.652466,503.052643 
	C787.832275,502.854156 769.008545,503.000000 750.186279,503.000000 
	C748.562683,503.000000 746.939148,503.000000 745.068176,503.000000 
	C745.393372,496.528137 745.938049,490.492584 745.958618,484.455231 
	C746.052734,456.821960 746.036133,429.188049 745.955750,401.554657 
	C745.945374,397.973083 745.344055,394.392212 744.996643,390.812958 
	C744.727966,388.043213 745.910889,386.992523 748.731079,386.957275 
	C768.972656,386.704193 789.212036,386.271179 809.453796,386.054047 
	C813.365417,386.012054 817.284607,386.668060 821.656982,387.015839 
M826.559998,464.961456 
	C834.325256,452.415436 834.161438,439.358032 827.588928,426.719269 
	C825.777100,423.234985 820.714966,419.756805 816.830566,419.362213 
	C806.708313,418.333862 796.412170,419.016205 786.285156,419.016205 
	C786.285156,436.674927 786.285156,453.727966 786.285156,470.999573 
	C795.532104,470.999573 804.549438,471.577271 813.436218,470.751099 
	C817.753479,470.349731 821.826599,467.321594 826.559998,464.961456 
z"/>
<path fill="#FFFFFF" opacity="1.000000" stroke="none" 
	d="
M1607.000000,487.009766 
	C1607.000000,492.482605 1607.000000,497.458252 1607.000000,502.716064 
	C1594.552979,502.716064 1582.329956,502.716064 1570.505493,502.716064 
	C1570.505493,497.530762 1570.505493,492.530762 1570.505493,487.062561 
	C1562.519287,501.539368 1549.600586,506.068481 1534.341797,504.904236 
	C1521.726074,503.941681 1510.661621,496.129089 1505.283325,482.421448 
	C1498.032227,463.940369 1499.453369,445.917114 1511.016479,429.346893 
	C1517.388184,420.215881 1525.786133,415.027069 1537.596558,414.811981 
	C1552.460327,414.541229 1563.702759,419.838989 1572.233154,432.473083 
	C1571.822144,427.892700 1571.146729,423.317566 1571.055542,418.730835 
	C1570.869995,409.404449 1571.000000,400.071747 1570.999756,390.741669 
	C1570.999634,389.742035 1571.101685,388.729340 1570.978882,387.744812 
	C1569.887695,378.998535 1569.875854,379.000000 1578.532104,379.000000 
	C1587.837646,379.000000 1597.143188,379.000000 1607.000000,379.000000 
	C1607.000000,414.995148 1607.000000,450.753876 1607.000000,487.009766 
M1538.000000,460.441772 
	C1539.031616,468.599701 1543.070923,476.788330 1553.090454,477.241943 
	C1567.839111,477.909729 1573.506836,466.785919 1570.261719,453.785004 
	C1568.473267,446.620239 1558.814331,442.847351 1551.486084,444.098389 
	C1543.927734,445.388641 1538.386963,451.072906 1538.000000,460.441772 
z"/>
<path fill="#FFFFFF" opacity="1.000000" stroke="none" 
	d="
M1195.243652,488.663940 
	C1198.905518,493.414551 1202.355225,497.863983 1206.334961,502.997070 
	C1191.980957,502.997070 1178.422852,503.101227 1164.871826,502.839294 
	C1163.484497,502.812500 1161.769653,500.826447 1160.836792,499.351196 
	C1156.027344,491.744629 1151.442749,483.996124 1146.719482,476.334290 
	C1146.213867,475.514191 1145.317139,474.935181 1144.599121,474.241730 
	C1141.012695,477.496857 1137.309937,480.736084 1133.789673,484.162811 
	C1133.145630,484.789734 1133.047974,486.176971 1133.033081,487.218018 
	C1132.959961,492.340759 1133.000000,497.465118 1133.000000,502.789978 
	C1120.224487,502.789978 1107.821533,502.789978 1095.500000,502.789978 
	C1095.500000,461.568848 1095.500000,420.507538 1095.500000,379.001038 
	C1106.779419,379.001038 1118.223999,379.051392 1129.667603,378.971710 
	C1133.305664,378.946381 1133.008057,381.325012 1133.006470,383.716736 
	C1132.994629,402.375214 1133.000000,421.033722 1133.000000,439.692200 
	C1133.000000,441.294891 1133.000000,442.897583 1133.000000,445.308807 
	C1141.049316,436.721741 1148.615112,428.802002 1155.984985,420.704010 
	C1158.484009,417.958038 1160.630981,415.765350 1164.966187,415.870972 
	C1179.101074,416.215393 1193.249756,416.000000 1208.815430,416.000000 
	C1195.075073,428.529480 1182.162842,440.303802 1168.875000,452.420593 
	C1177.644287,464.470642 1186.337769,476.416718 1195.243652,488.663940 
z"/>
<path fill="#FFFFFF" opacity="1.000000" stroke="none" 
	d="
M955.681641,495.220856 
	C954.312866,490.491699 953.216858,486.055878 952.117249,481.605103 
	C949.231079,488.970398 945.025574,495.801300 937.175598,499.288452 
	C932.985596,501.149719 928.630432,503.393188 924.198181,503.796417 
	C915.262451,504.609375 906.036926,504.837280 897.688843,500.784973 
	C890.214905,497.156982 886.010254,490.703796 885.017395,482.381165 
	C883.966492,473.571991 886.476440,465.766876 893.926636,460.872864 
	C898.864990,457.628876 904.924683,456.091797 910.998718,453.576813 
	C903.905701,449.060883 896.452576,444.315674 888.660278,439.354523 
	C898.654358,427.281464 910.308716,418.360199 926.139587,415.992584 
	C937.929077,414.229340 949.782715,413.914246 961.278198,417.116638 
	C976.946289,421.481476 986.123535,430.551422 987.868958,447.486328 
	C988.916870,457.653595 988.588928,467.958282 989.066589,478.192444 
	C989.160400,480.202362 989.511414,483.286835 990.773621,483.968262 
	C996.330383,486.968353 994.906006,491.870636 994.993591,496.433105 
	C995.031677,498.415680 995.000000,500.399597 995.000000,502.786438 
	C984.176086,503.744690 973.560181,505.851044 962.950989,502.060547 
	C959.576721,500.855011 956.867615,499.216980 955.681641,495.220856 
M951.569336,466.958099 
	C952.141296,465.491791 952.713318,464.025513 953.254333,462.638580 
	C948.117920,463.860321 943.602661,464.862183 939.126709,466.016876 
	C933.296387,467.520935 927.452942,469.009583 921.730896,470.862152 
	C920.842468,471.149811 920.010681,473.425018 920.193420,474.622253 
	C920.334106,475.543762 922.067200,476.815460 923.164124,476.891266 
	C927.122498,477.164978 931.271057,477.700500 935.052185,476.839203 
	C941.200806,475.438599 947.658020,473.926514 951.569336,466.958099 
M920.413818,452.865265 
	C925.462646,452.576843 930.508972,452.224762 935.561279,452.023285 
	C938.715637,451.897552 942.013062,452.552277 944.997253,451.829132 
	C947.524780,451.216675 952.128174,451.997620 951.813538,447.663086 
	C951.531433,443.776428 947.903564,442.931274 944.386230,443.008209 
	C943.405090,443.029663 942.424194,443.132416 941.446350,443.229340 
	C933.547241,444.012238 926.607422,447.067413 920.413818,452.865265 
z"/>
<path fill="#0801FF" opacity="1.000000" stroke="none" 
	d="
M366.000122,778.833679 
	C354.402039,773.795898 342.417236,769.479309 331.310944,763.524353 
	C319.424377,757.150879 307.953461,749.799255 297.045990,741.852234 
	C282.241486,731.065796 269.035400,718.295471 257.634033,703.953186 
	C248.607742,692.598694 239.932617,680.850464 232.275940,668.546265 
	C217.701187,645.124878 208.295349,619.519775 202.987686,592.441223 
	C201.579483,585.256897 200.364243,578.034607 199.449112,570.458862 
	C200.633133,570.659729 201.609894,571.086975 202.197174,571.824463 
	C216.123703,589.312500 229.926910,606.899231 243.919739,624.333862 
	C264.964630,650.555237 286.173553,676.644897 307.243500,702.846191 
	C324.575226,724.398865 341.860474,745.989624 359.026031,767.674622 
	C361.731750,771.092651 363.694061,775.099243 366.000122,778.833679 
z"/>
<path fill="#FFFFFF" opacity="1.000000" stroke="none" 
	d="
M1450.293457,415.679810 
	C1471.237793,417.912872 1488.118286,429.213562 1491.701294,450.082794 
	C1494.820435,468.249939 1491.394287,486.423126 1471.640991,497.583954 
	C1465.933350,500.808807 1459.161011,502.669128 1452.641846,503.796814 
	C1445.555542,505.022583 1438.139893,505.392242 1430.967651,504.839203 
	C1418.515015,503.879028 1406.079102,501.718689 1396.823975,492.195526 
	C1389.266357,484.418976 1385.376709,474.871185 1384.941772,463.865295 
	C1384.530029,453.448853 1385.451782,443.438263 1391.218384,434.390442 
	C1397.817017,424.037109 1407.645386,417.969208 1419.340210,416.273956 
	C1429.366211,414.820587 1439.717529,415.610260 1450.293457,415.679810 
M1456.984131,467.020172 
	C1459.031982,459.325104 1459.079224,451.714447 1451.954224,446.774384 
	C1448.365234,444.286011 1443.403076,443.097778 1438.943237,442.719635 
	C1433.449097,442.253784 1427.399292,442.854919 1423.437622,447.287903 
	C1414.915771,456.823517 1419.097046,474.274780 1431.506592,476.397797 
	C1441.851562,478.167633 1451.858643,475.971497 1456.984131,467.020172 
z"/>
<path fill="#FFFFFF" opacity="1.000000" stroke="none" 
	d="
M1130.809570,635.510742 
	C1131.450439,641.751648 1131.924072,647.599792 1132.442505,653.999512 
	C1108.218262,653.999512 1084.710571,653.999512 1061.074707,653.999512 
	C1064.916016,668.414917 1076.385986,669.735291 1087.567627,667.502319 
	C1092.323608,666.552490 1096.530518,662.883057 1101.009399,660.491516 
	C1101.899414,660.016296 1103.106567,659.175781 1103.804321,659.444946 
	C1112.883789,662.947205 1121.897583,666.619446 1131.227417,670.369385 
	C1126.850220,679.923767 1119.469360,686.392883 1110.226929,689.756042 
	C1091.411743,696.602722 1072.153198,696.963074 1052.861694,691.039795 
	C1038.636353,686.671997 1028.571289,671.450745 1026.815552,657.803406 
	C1025.596191,648.325989 1026.295288,639.471741 1029.771851,630.669556 
	C1035.349365,616.547424 1046.377441,608.897339 1060.617676,606.334167 
	C1074.507324,603.834167 1088.690430,603.378296 1102.371216,608.054504 
	C1115.877075,612.670837 1126.037354,621.064819 1130.809570,635.510742 
M1074.146973,630.323853 
	C1069.005981,631.966980 1064.440552,634.303467 1062.422607,639.958008 
	C1074.219482,639.958008 1085.843262,639.958008 1098.467407,639.958008 
	C1096.784180,637.875366 1095.523438,636.225037 1094.169189,634.655457 
	C1088.874512,628.519165 1081.763550,629.839905 1074.146973,630.323853 
z"/>
<path fill="#FFFFFF" opacity="1.000000" stroke="none" 
	d="
M1685.000000,464.000000 
	C1673.840820,464.000000 1663.181641,464.000000 1652.516357,464.000000 
	C1653.582642,480.359863 1679.946533,483.877899 1693.728882,469.044220 
	C1703.176025,472.783356 1712.636353,476.527710 1722.382568,480.385193 
	C1715.865967,493.739044 1704.611694,500.195648 1691.273682,502.792938 
	C1682.327759,504.534912 1672.940918,505.329285 1663.863037,504.761414 
	C1650.927734,503.952240 1638.047363,501.588501 1628.626709,491.117676 
	C1622.162842,483.933167 1619.123657,475.481964 1617.812012,465.853943 
	C1616.174927,453.839386 1618.321167,443.043274 1625.025879,433.166779 
	C1631.890991,423.053833 1641.874023,417.580048 1653.776611,416.122925 
	C1661.772217,415.144073 1669.916260,414.963257 1677.984131,415.082764 
	C1691.641113,415.285065 1703.802979,420.303040 1713.155640,430.027008 
	C1719.388916,436.507874 1723.522705,444.808807 1723.023804,454.514557 
	C1722.871094,457.482971 1723.000000,460.465851 1723.000000,464.000000 
	C1710.353149,464.000000 1697.926636,464.000000 1685.000000,464.000000 
M1669.504395,450.000000 
	C1675.850464,450.000000 1682.196655,450.000000 1688.669922,450.000000 
	C1686.825562,443.575867 1679.850586,439.082275 1672.429565,439.140991 
	C1663.783081,439.209381 1656.201538,443.566467 1654.114380,450.000000 
	C1658.994385,450.000000 1663.750854,450.000000 1669.504395,450.000000 
z"/>
<path fill="#FFFFFF" opacity="1.000000" stroke="none" 
	d="
M1180.309814,633.337097 
	C1179.062744,638.821106 1179.955688,640.095459 1185.025269,639.970154 
	C1194.274536,639.741577 1203.553101,638.699585 1212.756104,639.188293 
	C1221.026733,639.627563 1229.381226,640.649597 1236.640137,645.860718 
	C1242.374512,649.977356 1244.959717,658.269287 1244.217163,664.745850 
	C1243.600952,670.121521 1243.114624,675.299805 1239.724609,679.816467 
	C1234.508301,686.765991 1227.176880,689.828308 1219.103149,692.079407 
	C1208.340576,695.080139 1197.335938,695.808594 1186.438477,694.821411 
	C1170.173340,693.348083 1154.528198,689.206116 1140.838501,679.526184 
	C1145.830078,672.535583 1150.572998,665.816711 1155.408813,659.165344 
	C1156.930420,657.072510 1158.262085,656.511292 1161.081299,658.343689 
	C1170.149170,664.237305 1180.621460,666.692505 1191.179443,667.751770 
	C1195.529419,668.188232 1200.240967,666.150024 1204.603027,664.686462 
	C1206.010376,664.214355 1208.030151,661.213257 1207.697998,660.694031 
	C1206.503540,658.826416 1204.640625,656.782104 1202.625000,656.194397 
	C1200.014648,655.433167 1197.013062,655.923645 1194.184692,656.016418 
	C1185.270264,656.308838 1176.232300,657.766357 1167.471558,656.765747 
	C1150.470093,654.823792 1142.992188,649.230408 1143.224243,632.537476 
	C1143.386108,620.892517 1150.436157,613.365906 1163.382446,609.166443 
	C1187.372070,601.384949 1211.138306,603.766785 1234.348999,613.110352 
	C1234.645752,613.229858 1234.880981,613.493530 1235.162842,613.659302 
	C1244.406006,619.093689 1244.378296,619.065308 1236.609985,626.915283 
	C1232.876099,630.688293 1229.271362,634.588989 1225.719482,638.314880 
	C1213.681396,632.744507 1201.956055,628.505554 1189.064209,630.096497 
	C1186.157349,630.455200 1183.400757,632.029785 1180.309814,633.337097 
z"/>
<path fill="#0623F4" opacity="1.000000" stroke="none" 
	d="
M489.047791,790.107544 
	C484.009766,790.745605 478.971741,791.383728 473.444519,791.713989 
	C466.585510,783.167236 460.297638,774.863281 453.826843,766.704529 
	C443.942505,754.241760 433.914520,741.893188 423.979187,729.470703 
	C411.252380,713.557983 398.575073,697.605591 385.843201,681.696899 
	C371.866608,664.232849 357.865265,646.788635 343.850494,629.355225 
	C330.977600,613.342163 318.040070,597.380920 305.190369,581.349304 
	C291.099731,563.769531 277.079376,546.133423 263.024170,528.525330 
	C250.312256,512.600098 237.637344,496.645050 224.857864,480.774170 
	C219.993622,474.733185 214.883743,468.889954 209.885818,462.956604 
	C211.345108,458.411346 212.804398,453.866058 214.889709,449.281250 
	C216.916245,450.655945 218.460175,451.955566 219.695480,453.501740 
	C234.988663,472.643860 250.198441,491.852661 265.507568,510.981964 
	C280.819427,530.114685 296.240021,549.160278 311.573975,568.275330 
	C325.972748,586.224731 340.303619,604.228455 354.695648,622.183228 
	C368.676239,639.624634 382.731659,657.006042 396.690125,674.465149 
	C411.989899,693.601990 427.192841,712.816223 442.481354,731.962158 
	C457.975830,751.366028 473.523438,770.727539 489.047791,790.107544 
z"/>
<path fill="#FFFFFF" opacity="1.000000" stroke="none" 
	d="
M1003.151489,667.048706 
	C1007.523315,667.429382 1011.470642,667.766907 1015.998474,668.154114 
	C1015.998474,675.058899 1016.112427,683.006409 1015.860535,690.942383 
	C1015.827454,691.984558 1013.995056,693.751953 1012.871704,693.857178 
	C1000.469971,695.019287 988.039917,696.363403 975.733215,692.935242 
	C966.604065,690.392273 958.256531,679.889893 958.053589,669.899719 
	C957.822083,658.503418 958.000061,647.098816 958.000061,635.300293 
	C952.178833,635.300293 947.436035,635.300293 942.007324,635.300293 
	C942.007324,626.175049 941.907593,617.425842 942.153564,608.686340 
	C942.179626,607.761841 944.211853,606.155151 945.352051,606.119934 
	C953.097290,605.881165 961.606567,597.132568 962.220398,589.172729 
	C976.671448,589.172729 991.137390,589.172729 1007.400818,589.172729 
	C1001.271606,595.640503 995.960144,601.245422 990.609253,606.891846 
	C999.773376,606.891846 1009.036987,606.891846 1018.649780,606.891846 
	C1018.649780,616.149231 1018.649780,625.221008 1018.649780,635.156982 
	C1010.431885,634.740723 1001.986084,634.312866 993.008301,633.858093 
	C993.008301,641.663208 992.485901,649.128662 993.183960,656.478271 
	C993.686035,661.764648 996.571167,666.198608 1003.151489,667.048706 
z"/>
<path fill="#0714F8" opacity="1.000000" stroke="none" 
	d="
M201.166138,500.002747 
	C202.042221,494.907349 202.918320,489.811981 204.316284,484.402496 
	C205.522583,484.535553 206.378372,484.844788 206.865723,485.450470 
	C214.335175,494.733917 221.745209,504.065094 229.191620,513.367126 
	C243.054672,530.684875 256.925934,547.996155 270.805817,565.300415 
	C284.789368,582.733887 298.805084,600.141602 312.774292,617.586548 
	C326.947876,635.286682 341.057526,653.038086 355.240356,670.730835 
	C368.079620,686.747498 381.008514,702.692322 393.845581,718.710815 
	C407.922485,736.276428 421.997559,753.844238 435.953735,771.505615 
	C441.467590,778.483276 446.658661,785.716064 451.996674,792.832703 
	C446.972626,792.879333 441.948608,792.925964 436.456726,792.546997 
	C430.366180,784.621704 424.916351,776.984436 419.085327,769.650391 
	C406.210388,753.456665 393.107971,737.444031 380.164337,721.304626 
	C366.084290,703.748230 352.093719,686.120117 338.036713,668.545227 
	C325.424530,652.776672 312.754242,637.054626 300.147400,621.281799 
	C286.199707,603.831299 272.317017,586.328796 258.365845,568.881104 
	C242.451096,548.977661 226.548279,529.064026 210.497955,509.270294 
	C207.752747,505.884827 204.294815,503.077271 201.166138,500.002747 
z"/>
<path fill="#0453E6" opacity="1.000000" stroke="none" 
	d="
M251.888245,383.955475 
	C253.687912,381.711334 255.487595,379.467224 257.901367,377.232300 
	C261.607574,380.695129 264.855530,384.022919 267.763611,387.625092 
	C277.955566,400.249634 288.024414,412.973541 298.151215,425.650726 
	C310.759644,441.434509 323.433258,457.166626 335.969910,473.007141 
	C341.755859,480.317841 347.155212,487.935364 352.968842,495.223114 
	C357.658020,501.101257 362.851135,506.576813 367.554047,512.444702 
	C372.253754,518.308594 376.444275,524.582520 381.179718,530.415527 
	C387.534821,538.243591 394.352051,545.696899 400.696960,553.532898 
	C412.157349,567.686584 423.385315,582.028076 434.764313,596.247986 
	C448.732361,613.703308 462.775299,631.098694 476.749695,648.548950 
	C490.928558,666.254456 505.056183,684.001099 519.219604,701.718994 
	C532.245544,718.013977 545.235107,734.338684 558.360474,750.553284 
	C561.973267,755.016357 566.015076,759.132080 569.859985,763.407227 
	C566.804321,765.187439 563.748657,766.967712 560.302673,768.452942 
	C557.366211,764.697571 554.928101,761.151367 552.255920,757.791321 
	C538.128601,740.027527 523.959900,722.296387 509.771484,704.581238 
	C495.787628,687.121521 481.771484,669.687622 467.753754,652.255005 
	C456.228088,637.921570 444.645203,623.634033 433.149567,609.276550 
	C419.170898,591.817810 405.283661,574.285950 391.307861,556.824951 
	C377.329498,539.360840 363.279724,521.953796 349.281525,504.505554 
	C334.871216,486.543701 320.478790,468.567474 306.090576,450.587921 
	C293.358002,434.677307 280.695374,418.710266 267.892456,402.856506 
	C262.707123,396.435516 257.231689,390.248810 251.888245,383.955475 
z"/>
<path fill="#0448E9" opacity="1.000000" stroke="none" 
	d="
M554.107056,771.049316 
	C551.351379,772.360718 548.595764,773.672180 545.187317,774.830200 
	C533.643921,760.913818 522.815002,747.101501 511.849701,733.398193 
	C490.164520,706.298218 468.404663,679.258057 446.674316,652.194214 
	C433.095276,635.282349 419.539795,618.351562 405.926941,601.466980 
	C387.530975,578.649719 369.016815,555.927429 350.688385,533.056213 
	C331.327301,508.896301 312.141357,484.596100 292.848175,460.381622 
	C276.237915,439.534515 259.584473,418.721832 242.950150,397.893921 
	C244.410080,394.991364 245.869995,392.088776 247.787018,389.350769 
	C249.431961,391.112030 250.571030,392.747833 251.815186,394.299377 
	C264.461304,410.070068 277.131226,425.821686 289.781250,441.589264 
	C304.191162,459.550385 318.599609,477.512726 332.986176,495.492584 
	C345.716858,511.403015 358.401886,527.349915 371.134033,543.259216 
	C385.110535,560.723389 399.102356,578.175354 413.116241,595.609497 
	C425.988556,611.623535 438.933624,627.579102 451.783478,643.611084 
	C465.874207,661.191101 479.888031,678.832825 493.943939,696.440796 
	C506.656708,712.366089 519.342590,728.313110 532.115295,744.190247 
	C539.368103,753.205872 546.771484,762.100281 554.107056,771.049316 
z"/>
<path fill="#FFFFFF" opacity="1.000000" stroke="none" 
	d="
M1057.574951,418.148010 
	C1066.042358,417.060760 1074.127197,416.103088 1083.588989,414.982330 
	C1081.785034,428.356873 1080.156128,440.433472 1078.635254,451.708862 
	C1070.990723,450.759430 1063.917236,449.329529 1056.812500,449.152954 
	C1049.649780,448.975006 1044.473145,453.785034 1043.050537,460.707306 
	C1042.432739,463.713837 1042.079224,466.824310 1042.046021,469.892365 
	C1041.928101,480.778503 1042.000000,491.666687 1042.000000,502.779785 
	C1030.037109,502.779785 1017.273438,502.779785 1004.500000,502.779785 
	C1004.500000,473.976685 1004.500000,445.236633 1004.500000,416.500000 
	C1015.042236,416.500000 1025.793457,416.500000 1036.734131,416.500000 
	C1038.100342,423.077484 1039.519653,429.911072 1041.202271,438.011688 
	C1044.079834,428.242188 1049.924683,422.650879 1057.574951,418.148010 
z"/>
<path fill="#0442EB" opacity="1.000000" stroke="none" 
	d="
M242.634933,398.040283 
	C259.584473,418.721832 276.237915,439.534515 292.848175,460.381622 
	C312.141357,484.596100 331.327301,508.896301 350.688385,533.056213 
	C369.016815,555.927429 387.530975,578.649719 405.926941,601.466980 
	C419.539795,618.351562 433.095276,635.282349 446.674316,652.194214 
	C468.404663,679.258057 490.164520,706.298218 511.849701,733.398193 
	C522.815002,747.101501 533.643921,760.913818 544.818359,774.865112 
	C542.054443,776.330505 539.006592,777.607605 535.513123,778.440857 
	C534.536011,776.990662 534.143799,775.874817 533.451538,774.995056 
	C526.286865,765.890381 519.103516,756.800049 511.867920,747.751648 
	C497.911194,730.298157 483.935913,712.859375 469.933472,695.442444 
	C457.071625,679.444275 444.117004,663.520508 431.288635,647.495605 
	C415.980225,628.372559 400.801270,609.145813 385.494965,590.021057 
	C370.185944,570.893066 354.759827,551.858765 339.438416,532.740601 
	C322.463654,511.559204 305.577667,490.306702 288.600861,469.126953 
	C271.417267,447.689270 254.169846,426.302734 236.950378,404.893799 
	C238.740173,402.658081 240.529953,400.422363 242.634933,398.040283 
z"/>
<path fill="#035EE2" opacity="1.000000" stroke="none" 
	d="
M264.950775,368.893494 
	C266.744019,366.990143 268.537262,365.086792 270.785706,363.349121 
	C283.747314,379.180420 296.221619,394.871735 308.768158,410.505066 
	C324.526306,430.140106 340.352356,449.720612 356.132111,469.338318 
	C365.476410,480.955292 374.827484,492.567261 384.104279,504.238068 
	C395.950623,519.141602 407.632111,534.177063 419.559967,549.014709 
	C429.108917,560.893005 439.017242,572.482056 448.588898,584.342468 
	C460.029938,598.519226 471.243469,612.879395 482.626221,627.103516 
	C496.599030,644.564209 510.667877,661.947876 524.653015,679.398682 
	C540.292908,698.914368 555.935181,718.428528 571.466980,738.030090 
	C575.855713,743.568726 579.860901,749.411133 584.041992,755.114136 
	C581.916992,756.663513 579.791992,758.212891 577.289612,759.459900 
	C567.870178,747.540527 558.946960,735.828491 549.760620,724.326538 
	C531.780884,701.814575 513.617249,679.449341 495.598785,656.968140 
	C477.272552,634.103027 459.065491,611.142456 440.739777,588.276978 
	C422.721680,565.795288 404.580170,543.412598 386.565247,520.928406 
	C364.205170,493.021088 341.932129,465.044098 319.597870,437.116089 
	C301.400208,414.360779 283.167786,391.633331 264.950775,368.893494 
z"/>
<path fill="#0363E1" opacity="1.000000" stroke="none" 
	d="
M584.392273,755.058472 
	C579.860901,749.411133 575.855713,743.568726 571.466980,738.030090 
	C555.935181,718.428528 540.292908,698.914368 524.653015,679.398682 
	C510.667877,661.947876 496.599030,644.564209 482.626221,627.103516 
	C471.243469,612.879395 460.029938,598.519226 448.588898,584.342468 
	C439.017242,572.482056 429.108917,560.893005 419.559967,549.014709 
	C407.632111,534.177063 395.950623,519.141602 384.104279,504.238068 
	C374.827484,492.567261 365.476410,480.955292 356.132111,469.338318 
	C340.352356,449.720612 324.526306,430.140106 308.768158,410.505066 
	C296.221619,394.871735 283.747314,379.180420 271.095337,363.204712 
	C273.079742,360.654449 275.209686,358.414368 277.789886,356.342590 
	C291.786835,373.260315 305.374847,389.976532 318.868927,406.768250 
	C332.982391,424.330872 347.010529,441.962067 361.066742,459.570648 
	C373.778931,475.495544 386.396912,491.496643 399.233368,507.320587 
	C403.131195,512.125610 407.617310,516.453308 411.833984,520.999634 
	C415.937775,529.441101 419.807831,538.008057 424.243988,546.271118 
	C426.461182,550.400940 429.663696,554.012268 432.506256,557.793701 
	C437.695892,564.697327 442.802246,571.672363 448.244415,578.373169 
	C450.609528,581.285156 453.635803,583.690002 456.510345,586.151733 
	C461.271362,590.229004 466.152557,594.166077 471.030396,598.885620 
	C471.861542,601.047424 472.456757,602.635986 473.461487,603.898682 
	C478.093353,609.719971 482.896698,615.404846 487.534241,621.221741 
	C505.460083,643.706421 523.331421,666.234497 541.251160,688.723999 
	C557.831848,709.532837 574.448425,730.312988 591.049255,751.105774 
	C588.946960,752.404724 586.844727,753.703735 584.392273,755.058472 
z"/>
<path fill="#070DFB" opacity="1.000000" stroke="none" 
	d="
M198.167023,530.000977 
	C198.454376,524.295715 198.741730,518.590515 199.433258,512.486572 
	C200.633057,512.659912 201.610275,513.087341 202.197617,513.825134 
	C214.784286,529.636780 227.244720,545.549561 239.897369,561.308044 
	C260.954712,587.534302 282.195251,613.613525 303.235413,639.853455 
	C321.267212,662.341553 339.068695,685.014282 357.077759,707.520752 
	C376.434998,731.712158 395.964172,755.766052 415.290131,779.982300 
	C418.215942,783.648438 420.446533,787.869385 422.998718,791.833740 
	C417.621674,791.213196 412.244598,790.592590 406.427643,789.542114 
	C405.115906,787.367432 404.488922,785.435486 403.325439,783.913696 
	C400.108124,779.705688 396.624847,775.702393 393.321411,771.558655 
	C378.050171,752.402954 362.859467,733.182800 347.533386,714.071167 
	C333.240051,696.247437 318.746185,678.584534 304.461426,660.753967 
	C287.798920,639.955627 271.285797,619.037720 254.673874,598.198730 
	C238.990326,578.524292 223.320450,558.838257 207.499680,539.274475 
	C204.758255,535.884583 201.296204,533.077332 198.167023,530.000977 
z"/>
<path fill="#0705FD" opacity="1.000000" stroke="none" 
	d="
M366.340027,779.006348 
	C363.694061,775.099243 361.731750,771.092651 359.026031,767.674622 
	C341.860474,745.989624 324.575226,724.398865 307.243500,702.846191 
	C286.173553,676.644897 264.964630,650.555237 243.919739,624.333862 
	C229.926910,606.899231 216.123703,589.312500 202.197174,571.824463 
	C201.609894,571.086975 200.633133,570.659729 199.502258,570.045410 
	C198.787277,563.308960 198.407837,556.615051 198.455353,549.466858 
	C199.755280,549.405945 200.921158,549.562561 201.458359,550.227295 
	C215.291733,567.344421 229.085754,584.493530 242.831482,601.681213 
	C256.781921,619.124817 270.640076,636.642273 284.599792,654.078430 
	C299.906586,673.197144 315.291260,692.253479 330.627106,711.348877 
	C346.582031,731.215210 362.572144,751.053711 378.425323,771.000916 
	C382.197815,775.747620 385.486511,780.878845 388.997742,785.833130 
	C381.558472,783.615112 374.119232,781.397034 366.340027,779.006348 
z"/>
<path fill="#0708FC" opacity="1.000000" stroke="none" 
	d="
M389.389526,785.914856 
	C385.486511,780.878845 382.197815,775.747620 378.425323,771.000916 
	C362.572144,751.053711 346.582031,731.215210 330.627106,711.348877 
	C315.291260,692.253479 299.906586,673.197144 284.599792,654.078430 
	C270.640076,636.642273 256.781921,619.124817 242.831482,601.681213 
	C229.085754,584.493530 215.291733,567.344421 201.458359,550.227295 
	C200.921158,549.562561 199.755280,549.405945 198.524536,549.006958 
	C198.120773,542.977051 198.074829,536.952820 198.097961,530.464722 
	C201.296204,533.077332 204.758255,535.884583 207.499680,539.274475 
	C223.320450,558.838257 238.990326,578.524292 254.673874,598.198730 
	C271.285797,619.037720 287.798920,639.955627 304.461426,660.753967 
	C318.746185,678.584534 333.240051,696.247437 347.533386,714.071167 
	C362.859467,733.182800 378.050171,752.402954 393.321411,771.558655 
	C396.624847,775.702393 400.108124,779.705688 403.325439,783.913696 
	C404.488922,785.435486 405.115906,787.367432 405.993927,789.472656 
	C400.593842,788.554260 395.187592,787.275452 389.389526,785.914856 
z"/>
<path fill="#044EE7" opacity="1.000000" stroke="none" 
	d="
M554.465820,771.018005 
	C546.771484,762.100281 539.368103,753.205872 532.115295,744.190247 
	C519.342590,728.313110 506.656708,712.366089 493.943939,696.440796 
	C479.888031,678.832825 465.874207,661.191101 451.783478,643.611084 
	C438.933624,627.579102 425.988556,611.623535 413.116241,595.609497 
	C399.102356,578.175354 385.110535,560.723389 371.134033,543.259216 
	C358.401886,527.349915 345.716858,511.403015 332.986176,495.492584 
	C318.599609,477.512726 304.191162,459.550385 289.781250,441.589264 
	C277.131226,425.821686 264.461304,410.070068 251.815186,394.299377 
	C250.571030,392.747833 249.431961,391.112030 248.098694,389.202728 
	C249.066284,387.333099 250.179291,385.776062 251.590271,384.087250 
	C257.231689,390.248810 262.707123,396.435516 267.892456,402.856506 
	C280.695374,418.710266 293.358002,434.677307 306.090576,450.587921 
	C320.478790,468.567474 334.871216,486.543701 349.281525,504.505554 
	C363.279724,521.953796 377.329498,539.360840 391.307861,556.824951 
	C405.283661,574.285950 419.170898,591.817810 433.149567,609.276550 
	C444.645203,623.634033 456.228088,637.921570 467.753754,652.255005 
	C481.771484,669.687622 495.787628,687.121521 509.771484,704.581238 
	C523.959900,722.296387 538.128601,740.027527 552.255920,757.791321 
	C554.928101,761.151367 557.366211,764.697571 559.955200,768.495605 
	C558.273621,769.551147 556.549133,770.268921 554.465820,771.018005 
z"/>
<path fill="#061AF7" opacity="1.000000" stroke="none" 
	d="
M452.450684,792.902100 
	C446.658661,785.716064 441.467590,778.483276 435.953735,771.505615 
	C421.997559,753.844238 407.922485,736.276428 393.845581,718.710815 
	C381.008514,702.692322 368.079620,686.747498 355.240356,670.730835 
	C341.057526,653.038086 326.947876,635.286682 312.774292,617.586548 
	C298.805084,600.141602 284.789368,582.733887 270.805817,565.300415 
	C256.925934,547.996155 243.054672,530.684875 229.191620,513.367126 
	C221.745209,504.065094 214.335175,494.733917 206.865723,485.450470 
	C206.378372,484.844788 205.522583,484.535553 204.502747,484.045898 
	C204.858871,480.458282 205.550446,476.913147 206.878815,473.304688 
	C215.631134,483.068176 223.835724,492.823090 231.842621,502.737610 
	C246.199692,520.515259 260.428833,538.396118 274.728424,556.220276 
	C288.719635,573.660034 302.764160,591.057068 316.726440,608.519897 
	C332.030518,627.660950 347.216736,646.896362 362.547913,666.015564 
	C376.845856,683.846252 391.309753,701.543762 405.621918,719.363037 
	C421.279602,738.857483 436.899048,758.383301 452.416412,777.989441 
	C456.182739,782.748169 459.483093,787.875671 462.997681,792.833618 
	C459.633331,792.879578 456.269012,792.925598 452.450684,792.902100 
z"/>
<path fill="#0711F9" opacity="1.000000" stroke="none" 
	d="
M423.427246,791.903137 
	C420.446533,787.869385 418.215942,783.648438 415.290131,779.982300 
	C395.964172,755.766052 376.434998,731.712158 357.077759,707.520752 
	C339.068695,685.014282 321.267212,662.341553 303.235413,639.853455 
	C282.195251,613.613525 260.954712,587.534302 239.897369,561.308044 
	C227.244720,545.549561 214.784286,529.636780 202.197617,513.825134 
	C201.610275,513.087341 200.633057,512.659912 199.501892,512.045288 
	C199.703857,508.246368 200.241379,504.490204 200.972519,500.368378 
	C204.294815,503.077271 207.752747,505.884827 210.497955,509.270294 
	C226.548279,529.064026 242.451096,548.977661 258.365845,568.881104 
	C272.317017,586.328796 286.199707,603.831299 300.147400,621.281799 
	C312.754242,637.054626 325.424530,652.776672 338.036713,668.545227 
	C352.093719,686.120117 366.084290,703.748230 380.164337,721.304626 
	C393.107971,737.444031 406.210388,753.456665 419.085327,769.650391 
	C424.916351,776.984436 430.366180,784.621704 435.994446,792.477661 
	C431.951904,792.546814 427.903839,792.259644 423.427246,791.903137 
z"/>
<path fill="#061EF5" opacity="1.000000" stroke="none" 
	d="
M463.439392,792.902344 
	C459.483093,787.875671 456.182739,782.748169 452.416412,777.989441 
	C436.899048,758.383301 421.279602,738.857483 405.621918,719.363037 
	C391.309753,701.543762 376.845856,683.846252 362.547913,666.015564 
	C347.216736,646.896362 332.030518,627.660950 316.726440,608.519897 
	C302.764160,591.057068 288.719635,573.660034 274.728424,556.220276 
	C260.428833,538.396118 246.199692,520.515259 231.842621,502.737610 
	C223.835724,492.823090 215.631134,483.068176 207.204605,473.095795 
	C207.677750,469.752411 208.461899,466.554565 209.565933,463.156677 
	C214.883743,468.889954 219.993622,474.733185 224.857864,480.774170 
	C237.637344,496.645050 250.312256,512.600098 263.024170,528.525330 
	C277.079376,546.133423 291.099731,563.769531 305.190369,581.349304 
	C318.040070,597.380920 330.977600,613.342163 343.850494,629.355225 
	C357.865265,646.788635 371.866608,664.232849 385.843201,681.696899 
	C398.575073,697.605591 411.252380,713.557983 423.979187,729.470703 
	C433.914520,741.893188 443.942505,754.241760 453.826843,766.704529 
	C460.297638,774.863281 466.585510,783.167236 472.995972,791.764038 
	C469.984772,792.405029 466.932922,792.688110 463.439392,792.902344 
z"/>
<path fill="#FFFFFF" opacity="1.000000" stroke="none" 
	d="
M932.000000,643.000183 
	C932.000000,659.845337 932.000000,676.190613 932.000000,692.772278 
	C919.939087,692.772278 907.206116,692.772278 894.500000,692.772278 
	C894.500000,664.023499 894.500000,635.327942 894.500000,606.316284 
	C906.817261,606.316284 919.553589,606.316284 932.000000,606.316284 
	C932.000000,618.227051 932.000000,630.363647 932.000000,643.000183 
z"/>
<path fill="#052DF1" opacity="1.000000" stroke="none" 
	d="
M502.999207,787.833496 
	C500.936401,788.212341 498.873627,788.591125 496.362244,788.566040 
	C489.323395,779.870789 482.740845,771.573242 476.141296,763.289307 
	C462.206390,745.797974 448.289612,728.292114 434.314911,710.832581 
	C420.337677,693.370117 406.287231,675.966248 392.290375,658.519470 
	C377.881531,640.558960 363.504120,622.573364 349.102692,604.606995 
	C336.460144,588.834839 323.786163,573.087952 311.157501,557.304749 
	C297.082245,539.713623 283.056549,522.082886 268.983154,504.490295 
	C255.944809,488.191559 242.949295,471.857422 229.766769,455.675842 
	C225.859161,450.879181 221.382324,446.546204 217.166290,442.000793 
	C218.207901,439.761566 219.249527,437.522339 220.904327,435.263062 
	C222.569748,436.299957 223.727386,437.271973 224.657928,438.426941 
	C233.798050,449.771790 242.912827,461.137146 252.010498,472.516113 
	C264.727478,488.421967 277.409149,504.356079 290.132721,520.256653 
	C304.099762,537.711304 318.079956,555.155457 332.086548,572.578430 
	C344.952118,588.582092 357.893433,604.525024 370.740997,620.543152 
	C384.932800,638.237244 399.044830,655.995300 413.212219,673.709045 
	C425.727386,689.356934 438.281311,704.973816 450.799103,720.619690 
	C464.969452,738.331055 479.178680,756.012085 493.234741,773.813843 
	C496.757538,778.275452 499.758453,783.149170 502.999207,787.833496 
z"/>
<path fill="#0629F2" opacity="1.000000" stroke="none" 
	d="
M217.088867,442.366974 
	C221.382324,446.546204 225.859161,450.879181 229.766769,455.675842 
	C242.949295,471.857422 255.944809,488.191559 268.983154,504.490295 
	C283.056549,522.082886 297.082245,539.713623 311.157501,557.304749 
	C323.786163,573.087952 336.460144,588.834839 349.102692,604.606995 
	C363.504120,622.573364 377.881531,640.558960 392.290375,658.519470 
	C406.287231,675.966248 420.337677,693.370117 434.314911,710.832581 
	C448.289612,728.292114 462.206390,745.797974 476.141296,763.289307 
	C482.740845,771.573242 489.323395,779.870789 495.955444,788.497864 
	C493.951447,789.228882 491.905640,789.624146 489.453796,790.063477 
	C473.523438,770.727539 457.975830,751.366028 442.481354,731.962158 
	C427.192841,712.816223 411.989899,693.601990 396.690125,674.465149 
	C382.731659,657.006042 368.676239,639.624634 354.695648,622.183228 
	C340.303619,604.228455 325.972748,586.224731 311.573975,568.275330 
	C296.240021,549.160278 280.819427,530.114685 265.507568,510.981964 
	C250.198441,491.852661 234.988663,472.643860 219.695480,453.501740 
	C218.460175,451.955566 216.916245,450.655945 215.204773,449.096130 
	C215.599686,446.878052 216.305573,444.805603 217.088867,442.366974 
z"/>
<path fill="#00A7CC" opacity="1.000000" stroke="none" 
	d="
M386.951172,295.891968 
	C395.944702,293.930756 404.853424,291.217224 413.952423,290.191467 
	C426.397919,288.788452 439.000397,288.833984 451.509460,287.906525 
	C455.732178,287.593475 458.708099,289.178864 460.748260,292.348663 
	C466.209564,300.833954 468.134308,313.832916 458.437286,321.984375 
	C453.018524,326.539490 447.932037,331.561981 443.170319,336.804779 
	C439.064270,341.325806 435.629852,346.456848 431.498810,351.219391 
	C416.383148,332.711060 401.667175,314.301514 386.951172,295.891968 
z"/>
<path fill="#0532EF" opacity="1.000000" stroke="none" 
	d="
M222.887146,429.955780 
	C223.688339,428.065277 224.489517,426.174744 225.904541,424.263489 
	C227.654358,425.443451 228.882721,426.570221 229.911758,427.856476 
	C238.496002,438.586578 247.004166,449.377686 255.611801,460.088898 
	C267.332916,474.674438 279.164307,489.171417 290.870117,503.769165 
	C304.852692,521.206177 318.726746,538.730225 332.695435,556.178406 
	C346.666412,573.629456 360.703644,591.027405 374.697998,608.459778 
	C389.208008,626.534546 403.702972,644.621277 418.201660,662.705078 
	C430.735016,678.337585 443.275391,693.964539 455.792633,709.609924 
	C469.962402,727.320801 484.161316,745.008789 498.241943,762.790344 
	C503.970612,770.024719 509.421143,777.479187 514.998230,784.833496 
	C513.236877,785.465881 511.475555,786.098206 509.313354,786.444397 
	C508.697174,785.713196 508.555969,785.209167 508.255768,784.831604 
	C499.908020,774.332886 491.546478,763.845032 483.182495,753.359253 
	C469.142517,735.757507 455.115021,718.145813 441.052734,700.561890 
	C428.435730,684.785339 415.780182,669.039551 403.139313,653.282104 
	C388.739471,635.331909 374.319550,617.397827 359.940948,599.430664 
	C347.217651,583.531921 334.558289,567.582214 321.835693,551.682922 
	C307.869171,534.229187 293.857941,516.811279 279.874847,499.370789 
	C266.826569,483.096161 253.871353,466.745972 240.709824,450.563538 
	C234.981964,443.521027 228.840668,436.814758 222.887146,429.955780 
z"/>
<path fill="#053EEC" opacity="1.000000" stroke="none" 
	d="
M236.641724,405.066284 
	C254.169846,426.302734 271.417267,447.689270 288.600861,469.126953 
	C305.577667,490.306702 322.463654,511.559204 339.438416,532.740601 
	C354.759827,551.858765 370.185944,570.893066 385.494965,590.021057 
	C400.801270,609.145813 415.980225,628.372559 431.288635,647.495605 
	C444.117004,663.520508 457.071625,679.444275 469.933472,695.442444 
	C483.935913,712.859375 497.911194,730.298157 511.867920,747.751648 
	C519.103516,756.800049 526.286865,765.890381 533.451538,774.995056 
	C534.143799,775.874817 534.536011,776.990662 535.100098,778.409119 
	C534.000977,779.217346 532.869324,779.613342 531.110352,779.879517 
	C519.470520,766.089844 508.439606,752.444763 497.449829,738.766602 
	C482.828583,720.568542 468.235046,702.348206 453.637848,684.130798 
	C440.697296,667.981018 427.770050,651.820557 414.833191,635.667786 
	C400.962128,618.348633 387.094177,601.026978 373.210999,583.717529 
	C359.224182,566.278748 345.213654,548.859131 331.225616,531.421326 
	C316.825867,513.470215 302.431854,495.514526 288.051819,477.547668 
	C275.326538,461.648285 262.677887,445.687225 249.885071,429.842499 
	C244.703644,423.425018 239.229630,417.243744 233.888748,410.955017 
	C234.703522,409.049591 235.518295,407.144165 236.641724,405.066284 
z"/>
<path fill="#0536EE" opacity="1.000000" stroke="none" 
	d="
M515.369141,784.900696 
	C509.421143,777.479187 503.970612,770.024719 498.241943,762.790344 
	C484.161316,745.008789 469.962402,727.320801 455.792633,709.609924 
	C443.275391,693.964539 430.735016,678.337585 418.201660,662.705078 
	C403.702972,644.621277 389.208008,626.534546 374.697998,608.459778 
	C360.703644,591.027405 346.666412,573.629456 332.695435,556.178406 
	C318.726746,538.730225 304.852692,521.206177 290.870117,503.769165 
	C279.164307,489.171417 267.332916,474.674438 255.611801,460.088898 
	C247.004166,449.377686 238.496002,438.586578 229.911758,427.856476 
	C228.882721,426.570221 227.654358,425.443451 226.206726,424.095856 
	C226.698166,422.387787 227.501251,420.826630 228.910812,419.254211 
	C235.288696,426.271759 241.100662,433.267822 246.823395,440.336090 
	C259.844482,456.418884 272.859924,472.506531 285.806610,488.649231 
	C299.889832,506.209076 313.875854,523.846863 327.935577,541.425659 
	C340.550293,557.197815 353.224884,572.922119 365.841400,588.692993 
	C379.903046,606.270325 393.911591,623.890076 407.975311,641.465759 
	C421.004974,657.749084 434.080292,673.995972 447.129486,690.263733 
	C461.113007,707.696228 475.129791,725.102234 489.056000,742.580444 
	C499.781158,756.041016 510.388611,769.595337 521.048401,783.108032 
	C519.278931,783.727966 517.509460,784.347900 515.369141,784.900696 
z"/>
<path fill="#035AE3" opacity="1.000000" stroke="none" 
	d="
M264.655396,369.025909 
	C283.167786,391.633331 301.400208,414.360779 319.597870,437.116089 
	C341.932129,465.044098 364.205170,493.021088 386.565247,520.928406 
	C404.580170,543.412598 422.721680,565.795288 440.739777,588.276978 
	C459.065491,611.142456 477.272552,634.103027 495.598785,656.968140 
	C513.617249,679.449341 531.780884,701.814575 549.760620,724.326538 
	C558.946960,735.828491 567.870178,747.540527 576.955322,759.495361 
	C576.077942,760.282959 575.157654,760.732910 573.590088,761.095459 
	C566.261841,752.804871 559.555176,744.622192 552.905090,736.393921 
	C540.001343,720.427612 527.095642,704.462708 514.254211,688.446289 
	C502.865143,674.241333 491.589966,659.945068 480.213959,645.729553 
	C466.249573,628.279602 452.213654,610.886963 438.243835,593.441406 
	C424.069611,575.740601 409.964081,557.984802 395.780426,540.291565 
	C382.940308,524.274292 370.004852,508.333374 357.167175,492.314117 
	C343.089783,474.747894 329.079803,457.127655 315.033875,439.536194 
	C302.330109,423.625763 289.671600,407.678711 276.882355,391.837250 
	C271.702423,385.421082 266.228668,379.242096 260.888611,372.955170 
	C262.045746,371.689545 263.202911,370.423950 264.655396,369.025909 
z"/>
<path fill="#009DCF" opacity="1.000000" stroke="none" 
	d="
M386.544983,295.935760 
	C401.667175,314.301514 416.383148,332.711060 431.242554,351.497131 
	C429.473297,355.448975 427.597260,359.044495 425.638855,362.594604 
	C423.040588,367.304779 420.377991,371.979462 417.114746,376.714844 
	C414.585175,374.701996 412.559265,372.744324 410.802795,370.569031 
	C399.494965,356.565002 388.184052,342.562531 377.002380,328.457886 
	C370.856140,320.704956 364.959961,312.753784 358.951019,304.892029 
	C368.013611,301.921204 377.076202,298.950378 386.544983,295.935760 
z"/>
<path fill="#053BED" opacity="1.000000" stroke="none" 
	d="
M233.592377,411.085999 
	C239.229630,417.243744 244.703644,423.425018 249.885071,429.842499 
	C262.677887,445.687225 275.326538,461.648285 288.051819,477.547668 
	C302.431854,495.514526 316.825867,513.470215 331.225616,531.421326 
	C345.213654,548.859131 359.224182,566.278748 373.210999,583.717529 
	C387.094177,601.026978 400.962128,618.348633 414.833191,635.667786 
	C427.770050,651.820557 440.697296,667.981018 453.637848,684.130798 
	C468.235046,702.348206 482.828583,720.568542 497.449829,738.766602 
	C508.439606,752.444763 519.470520,766.089844 530.793579,779.900513 
	C529.330811,780.707642 527.557556,781.363953 525.370422,781.715027 
	C520.283691,775.419006 515.657104,769.391479 510.929291,763.444458 
	C498.253845,747.500244 485.554901,731.574585 472.828186,715.671265 
	C458.857086,698.212891 444.857117,680.777710 430.846405,663.351135 
	C417.977295,647.344482 405.054626,631.380798 392.197693,615.364380 
	C382.038879,602.709106 371.957001,589.992065 361.817566,577.321167 
	C349.295624,561.672974 336.737701,546.053589 324.216858,530.404480 
	C310.043060,512.689392 295.897430,494.951721 281.731384,477.230438 
	C270.047333,462.614044 258.411652,447.958313 246.632477,433.418915 
	C241.542557,427.136261 236.145340,421.102600 230.887726,414.955872 
	C231.690475,413.709595 232.493240,412.463287 233.592377,411.085999 
z"/>
<path fill="#0356E4" opacity="1.000000" stroke="none" 
	d="
M260.588806,373.088440 
	C266.228668,379.242096 271.702423,385.421082 276.882355,391.837250 
	C289.671600,407.678711 302.330109,423.625763 315.033875,439.536194 
	C329.079803,457.127655 343.089783,474.747894 357.167175,492.314117 
	C370.004852,508.333374 382.940308,524.274292 395.780426,540.291565 
	C409.964081,557.984802 424.069611,575.740601 438.243835,593.441406 
	C452.213654,610.886963 466.249573,628.279602 480.213959,645.729553 
	C491.589966,659.945068 502.865143,674.241333 514.254211,688.446289 
	C527.095642,704.462708 540.001343,720.427612 552.905090,736.393921 
	C559.555176,744.622192 566.261841,752.804871 573.293335,761.199219 
	C572.563477,761.963623 571.483337,762.536926 570.131592,763.258728 
	C566.015076,759.132080 561.973267,755.016357 558.360474,750.553284 
	C545.235107,734.338684 532.245544,718.013977 519.219604,701.718994 
	C505.056183,684.001099 490.928558,666.254456 476.749695,648.548950 
	C462.775299,631.098694 448.732361,613.703308 434.764313,596.247986 
	C423.385315,582.028076 412.157349,567.686584 400.696960,553.532898 
	C394.352051,545.696899 387.534821,538.243591 381.179718,530.415527 
	C376.444275,524.582520 372.253754,518.308594 367.554047,512.444702 
	C362.851135,506.576813 357.658020,501.101257 352.968842,495.223114 
	C347.155212,487.935364 341.755859,480.317841 335.969910,473.007141 
	C323.433258,457.166626 310.759644,441.434509 298.151215,425.650726 
	C288.024414,412.973541 277.955566,400.249634 267.763611,387.625092 
	C264.855530,384.022919 261.607574,380.695129 258.204529,377.095947 
	C258.692047,375.707520 259.490540,374.464630 260.588806,373.088440 
z"/>
<path fill="#0530F0" opacity="1.000000" stroke="none" 
	d="
M222.581223,430.129578 
	C228.840668,436.814758 234.981964,443.521027 240.709824,450.563538 
	C253.871353,466.745972 266.826569,483.096161 279.874847,499.370789 
	C293.857941,516.811279 307.869171,534.229187 321.835693,551.682922 
	C334.558289,567.582214 347.217651,583.531921 359.940948,599.430664 
	C374.319550,617.397827 388.739471,635.331909 403.139313,653.282104 
	C415.780182,669.039551 428.435730,684.785339 441.052734,700.561890 
	C455.115021,718.145813 469.142517,735.757507 483.182495,753.359253 
	C491.546478,763.845032 499.908020,774.332886 508.255768,784.831604 
	C508.555969,785.209167 508.697174,785.713196 508.955841,786.495972 
	C507.256287,787.211792 505.513306,787.589905 503.384766,787.900757 
	C499.758453,783.149170 496.757538,778.275452 493.234741,773.813843 
	C479.178680,756.012085 464.969452,738.331055 450.799103,720.619690 
	C438.281311,704.973816 425.727386,689.356934 413.212219,673.709045 
	C399.044830,655.995300 384.932800,638.237244 370.740997,620.543152 
	C357.893433,604.525024 344.952118,588.582092 332.086548,572.578430 
	C318.079956,555.155457 304.099762,537.711304 290.132721,520.256653 
	C277.409149,504.356079 264.727478,488.421967 252.010498,472.516113 
	C242.912827,461.137146 233.798050,449.771790 224.657928,438.426941 
	C223.727386,437.271973 222.569748,436.299957 221.205627,435.096710 
	C221.354279,433.401367 221.814789,431.852356 222.581223,430.129578 
z"/>
<path fill="#0368DF" opacity="1.000000" stroke="none" 
	d="
M591.364380,750.960083 
	C574.448425,730.312988 557.831848,709.532837 541.251160,688.723999 
	C523.331421,666.234497 505.460083,643.706421 487.534241,621.221741 
	C482.896698,615.404846 478.093353,609.719971 473.461487,603.898682 
	C472.456757,602.635986 471.861542,601.047424 471.059479,599.246948 
	C476.307281,602.126587 481.525391,605.449646 486.854004,608.584900 
	C491.393250,611.255676 496.059631,613.710388 500.873474,616.933899 
	C503.628296,621.240295 506.008972,625.008240 508.758850,628.484192 
	C523.954529,647.691895 539.217712,666.846252 554.501282,685.984192 
	C569.990784,705.379944 585.531067,724.735229 601.049072,744.108276 
	C597.925903,746.343628 594.802673,748.578979 591.364380,750.960083 
z"/>
<path fill="#0539ED" opacity="1.000000" stroke="none" 
	d="
M230.592911,415.114410 
	C236.145340,421.102600 241.542557,427.136261 246.632477,433.418915 
	C258.411652,447.958313 270.047333,462.614044 281.731384,477.230438 
	C295.897430,494.951721 310.043060,512.689392 324.216858,530.404480 
	C336.737701,546.053589 349.295624,561.672974 361.817566,577.321167 
	C371.957001,589.992065 382.038879,602.709106 392.197693,615.364380 
	C405.054626,631.380798 417.977295,647.344482 430.846405,663.351135 
	C444.857117,680.777710 458.857086,698.212891 472.828186,715.671265 
	C485.554901,731.574585 498.253845,747.500244 510.929291,763.444458 
	C515.657104,769.391479 520.283691,775.419006 524.996216,781.765625 
	C523.948669,782.420898 522.861389,782.720276 521.411255,783.063843 
	C510.388611,769.595337 499.781158,756.041016 489.056000,742.580444 
	C475.129791,725.102234 461.113007,707.696228 447.129486,690.263733 
	C434.080292,673.995972 421.004974,657.749084 407.975311,641.465759 
	C393.911591,623.890076 379.903046,606.270325 365.841400,588.692993 
	C353.224884,572.922119 340.550293,557.197815 327.935577,541.425659 
	C313.875854,523.846863 299.889832,506.209076 285.806610,488.649231 
	C272.859924,472.506531 259.844482,456.418884 246.823395,440.336090 
	C241.100662,433.267822 235.288696,426.271759 229.205383,419.096527 
	C229.361694,417.724426 229.829895,416.498688 230.592911,415.114410 
z"/>
<path fill="#0183D7" opacity="1.000000" stroke="none" 
	d="
M313.951569,327.892120 
	C317.380280,325.593658 320.808960,323.295166 324.731323,321.263550 
	C333.877808,332.574097 342.440063,343.690186 351.202637,354.646027 
	C368.426025,376.180389 385.760773,397.625671 403.049438,419.107788 
	C402.356476,424.112854 401.663483,429.117920 400.567169,434.518188 
	C396.145142,430.348053 391.952759,425.922729 388.138824,421.192291 
	C374.005707,403.663086 359.966064,386.058197 345.952332,368.433228 
	C335.237671,354.957489 324.615082,341.408508 313.951569,327.892120 
z"/>
<path fill="#0279DA" opacity="1.000000" stroke="none" 
	d="
M398.834045,442.999023 
	C398.879730,448.356842 398.925415,453.714661 398.551270,459.528015 
	C397.245605,459.353760 396.158875,458.885559 395.503357,458.070526 
	C380.590790,439.528381 365.745850,420.931824 350.845795,402.379547 
	C333.568573,380.867371 316.250702,359.387817 298.950500,337.894073 
	C301.743958,335.673828 304.537415,333.453583 307.708527,331.535522 
	C319.518555,346.182220 330.941833,360.533936 342.385437,374.869446 
	C358.066620,394.513489 373.705383,414.192047 389.508209,433.737854 
	C392.246338,437.124451 395.707062,439.926788 398.834045,442.999023 
z"/>
<path fill="#026DDE" opacity="1.000000" stroke="none" 
	d="
M402.833679,484.998169 
	C403.878967,490.724030 404.924255,496.449921 405.566498,502.542816 
	C400.680328,497.648743 396.059479,492.498077 391.737732,487.107574 
	C372.062103,462.566254 352.473083,437.955475 332.848114,413.373535 
	C316.219025,392.544220 299.583252,371.720184 282.950439,350.893829 
	C284.730774,349.335449 286.511078,347.777039 288.905334,346.231567 
	C294.253937,351.994446 299.060272,357.687073 303.710083,363.504852 
	C319.016846,382.656464 334.240356,401.874634 349.546509,421.026764 
	C364.128662,439.273071 378.727386,457.506683 393.442963,475.645203 
	C395.645996,478.360657 398.527649,480.525574 401.095367,482.945160 
	C401.095367,482.945160 401.017212,482.983795 401.050507,483.261261 
	C401.667114,484.025208 402.250397,484.511688 402.833679,484.998169 
z"/>
<path fill="#0193D2" opacity="1.000000" stroke="none" 
	d="
M358.567352,304.936951 
	C364.959961,312.753784 370.856140,320.704956 377.002380,328.457886 
	C388.184052,342.562531 399.494965,356.565002 410.802795,370.569031 
	C412.559265,372.744324 414.585175,374.701996 416.796570,376.905273 
	C415.021210,381.691864 412.935730,386.333466 410.128632,390.967285 
	C408.034790,389.815094 406.425629,388.861725 405.326019,387.497589 
	C389.452545,367.805511 373.598297,348.097382 357.857239,328.299500 
	C353.363831,322.648071 349.246277,316.697845 344.956360,310.884644 
	C349.365479,308.917053 353.774597,306.949432 358.567352,304.936951 
z"/>
<path fill="#018ED4" opacity="1.000000" stroke="none" 
	d="
M344.577637,310.932556 
	C349.246277,316.697845 353.363831,322.648071 357.857239,328.299500 
	C373.598297,348.097382 389.452545,367.805511 405.326019,387.497589 
	C406.425629,388.861725 408.034790,389.815094 409.761200,391.001648 
	C408.812225,396.123505 407.509033,401.203217 405.684753,406.598236 
	C399.982849,400.947571 394.612762,395.134308 389.654633,388.988708 
	C370.328827,365.034332 351.133575,340.974609 331.889771,316.954071 
	C335.992828,314.962860 340.095886,312.971649 344.577637,310.932556 
z"/>
<path fill="#0368DF" opacity="1.000000" stroke="none" 
	d="
M282.652405,351.028015 
	C299.583252,371.720184 316.219025,392.544220 332.848114,413.373535 
	C352.473083,437.955475 372.062103,462.566254 391.737732,487.107574 
	C396.059479,492.498077 400.680328,497.648743 405.498291,502.954742 
	C407.223450,507.247345 408.574432,511.508514 410.024872,515.735596 
	C410.549713,517.265137 411.312622,518.713013 411.900452,520.598877 
	C407.617310,516.453308 403.131195,512.125610 399.233368,507.320587 
	C386.396912,491.496643 373.778931,475.495544 361.066742,459.570648 
	C347.010529,441.962067 332.982391,424.330872 318.868927,406.768250 
	C305.374847,389.976532 291.786835,373.260315 278.096436,356.200500 
	C279.419952,354.314148 280.887146,352.738190 282.652405,351.028015 
z"/>
<path fill="#009DCF" opacity="1.000000" stroke="none" 
	d="
M618.005127,630.167053 
	C624.760498,628.225281 631.510803,626.265259 638.277344,624.363281 
	C639.204834,624.102600 640.213623,624.131470 641.637390,624.434326 
	C647.764709,632.099731 653.368103,639.414307 659.137878,646.595337 
	C663.348328,651.835632 667.777893,656.899780 672.109741,662.042419 
	C667.966492,668.964111 663.823242,675.885864 659.219482,682.646118 
	C648.181152,669.340027 637.539673,656.245728 627.063232,643.020752 
	C623.813660,638.918579 621.011902,634.461609 618.005127,630.167053 
z"/>
<path fill="#0279DA" opacity="1.000000" stroke="none" 
	d="
M536.000183,630.166443 
	C541.059937,631.118958 546.119629,632.071472 551.595093,633.451172 
	C552.266663,634.649780 552.332581,635.571838 552.806946,636.169983 
	C559.598694,644.733521 566.448853,653.250854 573.278564,661.784302 
	C584.968872,676.390808 596.594360,691.049744 608.370789,705.586487 
	C613.459473,711.867981 618.856201,717.900024 624.112976,724.045349 
	C621.627319,726.639954 619.141663,729.234497 616.215027,731.649109 
	C608.910400,722.765747 602.082458,714.033875 595.175659,705.364868 
	C581.047729,687.632385 566.825867,669.974609 552.749817,652.201172 
	C547.022888,644.970032 541.575012,637.518005 536.000183,630.166443 
z"/>
<path fill="#0272DC" opacity="1.000000" stroke="none" 
	d="
M401.055389,482.489746 
	C398.527649,480.525574 395.645996,478.360657 393.442963,475.645203 
	C378.727386,457.506683 364.128662,439.273071 349.546509,421.026764 
	C334.240356,401.874634 319.016846,382.656464 303.710083,363.504852 
	C299.060272,357.687073 294.253937,351.994446 289.207153,346.096924 
	C290.710327,344.357239 292.525635,342.765137 294.792480,341.344238 
	C299.764801,347.218536 304.269989,352.934143 308.809357,358.622437 
	C322.936157,376.324951 337.068329,394.023163 351.212860,411.711548 
	C364.221436,427.979401 377.167694,444.298370 390.327087,460.443481 
	C393.448303,464.272858 397.311707,467.497345 400.833710,471.000061 
	C400.894257,474.678162 400.954834,478.356262 401.055389,482.489746 
z"/>
<path fill="#FFFFFF" opacity="1.000000" stroke="none" 
	d="
M912.144958,597.979126 
	C909.071045,597.310791 906.408325,596.747375 903.800781,595.993225 
	C896.276733,593.817078 891.984070,586.763672 893.124939,577.452820 
	C894.271118,568.098755 899.390747,563.518799 906.685181,561.911682 
	C915.445984,559.981323 923.256958,561.202332 929.341003,567.964661 
	C934.592651,573.801941 934.304504,581.132507 931.524658,587.713318 
	C929.203796,593.207458 924.563721,597.066589 917.802734,597.050659 
	C916.063049,597.046570 914.321838,597.664734 912.144958,597.979126 
z"/>
<path fill="#018ED4" opacity="1.000000" stroke="none" 
	d="
M588.002563,635.166626 
	C593.050293,634.453125 598.098022,633.739624 603.616577,633.433594 
	C604.301819,634.285645 604.442322,634.788940 604.741577,635.166321 
	C615.116089,648.249023 625.415833,661.392578 635.931030,674.361389 
	C641.117371,680.757935 646.705750,686.828491 652.112183,693.046509 
	C648.963379,696.971863 645.814514,700.897217 642.220459,704.644165 
	C641.377686,703.735107 641.080200,702.924133 640.567993,702.285339 
	C626.689819,684.976685 612.730957,667.732178 598.930725,650.361755 
	C595.054260,645.482361 591.632751,640.241577 588.002563,635.166626 
z"/>
<path fill="#00A7CC" opacity="1.000000" stroke="none" 
	d="
M672.417114,661.873535 
	C667.777893,656.899780 663.348328,651.835632 659.137878,646.595337 
	C653.368103,639.414307 647.764709,632.099731 642.048706,624.505615 
	C646.738708,621.912292 651.305969,619.169250 656.237488,617.506409 
	C664.909790,614.582092 673.113403,615.107422 679.963379,622.391968 
	C685.715698,628.509216 686.712280,632.889526 683.034912,640.672363 
	C679.699646,647.731140 676.169006,654.697510 672.417114,661.873535 
z"/>
<path fill="#0275DB" opacity="1.000000" stroke="none" 
	d="
M535.674255,629.999878 
	C541.575012,637.518005 547.022888,644.970032 552.749817,652.201172 
	C566.825867,669.974609 581.047729,687.632385 595.175659,705.364868 
	C602.082458,714.033875 608.910400,722.765747 615.909912,731.789734 
	C614.247864,733.684143 612.449890,735.257996 610.204224,736.659180 
	C599.256958,723.482849 588.719055,710.509888 578.266663,697.468323 
	C562.748352,678.105835 547.222473,658.748596 531.861572,639.261536 
	C528.564697,635.079102 525.958435,630.352295 523.034058,625.876282 
	C525.880127,626.588562 528.751099,627.216919 531.561401,628.049805 
	C532.883789,628.441650 534.089661,629.226562 535.674255,629.999878 
z"/>
<path fill="#0183D7" opacity="1.000000" stroke="none" 
	d="
M562.036926,634.878479 
	C566.052795,634.928040 570.068604,634.977539 574.547974,635.453186 
	C575.265747,636.648560 575.328674,637.570129 575.802185,638.164917 
	C589.166748,654.953796 602.612122,671.678528 615.954956,688.484680 
	C622.412354,696.618103 628.689819,704.894409 635.048767,713.105957 
	C632.946716,715.403442 630.844604,717.700989 628.250366,719.743286 
	C607.815918,694.612610 587.830322,669.771606 567.988037,644.816589 
	C565.605957,641.820679 564.001709,638.206238 562.036926,634.878479 
z"/>
<path fill="#0189D5" opacity="1.000000" stroke="none" 
	d="
M331.576477,317.093658 
	C351.133575,340.974609 370.328827,365.034332 389.654633,388.988708 
	C394.612762,395.134308 399.982849,400.947571 405.498566,406.955505 
	C405.137604,410.878571 404.441711,414.759644 403.397644,418.874268 
	C385.760773,397.625671 368.426025,376.180389 351.202637,354.646027 
	C342.440063,343.690186 333.877808,332.574097 325.088745,321.209961 
	C327.056030,319.670685 329.159607,318.451965 331.576477,317.093658 
z"/>
<path fill="#0189D5" opacity="1.000000" stroke="none" 
	d="
M635.354736,712.965576 
	C628.689819,704.894409 622.412354,696.618103 615.954956,688.484680 
	C602.612122,671.678528 589.166748,654.953796 575.802185,638.164917 
	C575.328674,637.570129 575.265747,636.648560 575.006165,635.523071 
	C579.028870,635.120178 583.056885,635.073608 587.543701,635.096802 
	C591.632751,640.241577 595.054260,645.482361 598.930725,650.361755 
	C612.730957,667.732178 626.689819,684.976685 640.567993,702.285339 
	C641.080200,702.924133 641.377686,703.735107 641.912720,704.785400 
	C639.920349,707.678406 637.790527,710.251770 635.354736,712.965576 
z"/>
<path fill="#026DDE" opacity="1.000000" stroke="none" 
	d="
M601.352112,743.968750 
	C585.531067,724.735229 569.990784,705.379944 554.501282,685.984192 
	C539.217712,666.846252 523.954529,647.691895 508.758850,628.484192 
	C506.008972,625.008240 503.628296,621.240295 501.059204,617.244873 
	C504.805298,618.531738 508.569336,620.180969 512.672241,622.354309 
	C513.487549,623.897705 513.784973,625.059753 514.467224,625.914795 
	C525.404419,639.622681 536.383545,653.297119 547.367493,666.967651 
	C566.943115,691.331482 586.528320,715.687622 606.109558,740.046936 
	C604.624756,741.307678 603.139954,742.568481 601.352112,743.968750 
z"/>
<path fill="#027ED8" opacity="1.000000" stroke="none" 
	d="
M398.919189,442.609802 
	C395.707062,439.926788 392.246338,437.124451 389.508209,433.737854 
	C373.705383,414.192047 358.066620,394.513489 342.385437,374.869446 
	C330.941833,360.533936 319.518555,346.182220 308.044434,331.501953 
	C309.753204,330.109436 311.503754,329.052704 313.602905,327.944031 
	C324.615082,341.408508 335.237671,354.957489 345.952332,368.433228 
	C359.966064,386.058197 374.005707,403.663086 388.138824,421.192291 
	C391.952759,425.922729 396.145142,430.348053 400.498718,434.955353 
	C400.223846,437.405060 399.614136,439.812836 398.919189,442.609802 
z"/>
<path fill="#0193D2" opacity="1.000000" stroke="none" 
	d="
M652.421265,692.905945 
	C646.705750,686.828491 641.117371,680.757935 635.931030,674.361389 
	C625.415833,661.392578 615.116089,648.249023 604.741577,635.166321 
	C604.442322,634.788940 604.301819,634.285645 604.044373,633.503174 
	C608.418640,632.208862 612.835876,631.252502 617.629150,630.231628 
	C621.011902,634.461609 623.813660,638.918579 627.063232,643.020752 
	C637.539673,656.245728 648.181152,669.340027 658.904053,682.794922 
	C656.942871,686.325195 654.836548,689.545288 652.421265,692.905945 
z"/>
<path fill="#0275DB" opacity="1.000000" stroke="none" 
	d="
M400.901093,470.604706 
	C397.311707,467.497345 393.448303,464.272858 390.327087,460.443481 
	C377.167694,444.298370 364.221436,427.979401 351.212860,411.711548 
	C337.068329,394.023163 322.936157,376.324951 308.809357,358.622437 
	C304.269989,352.934143 299.764801,347.218536 295.098572,341.202942 
	C296.087158,339.978882 297.221191,339.067383 298.652832,338.024963 
	C316.250702,359.387817 333.568573,380.867371 350.845795,402.379547 
	C365.745850,420.931824 380.590790,439.528381 395.503357,458.070526 
	C396.158875,458.885559 397.245605,459.353760 398.482422,459.990967 
	C399.545044,463.402100 400.256744,466.805725 400.901093,470.604706 
z"/>
<path fill="#0272DC" opacity="1.000000" stroke="none" 
	d="
M606.401672,739.920776 
	C586.528320,715.687622 566.943115,691.331482 547.367493,666.967651 
	C536.383545,653.297119 525.404419,639.622681 514.467224,625.914795 
	C513.784973,625.059753 513.487549,623.897705 513.005554,622.522217 
	C516.207458,623.187988 519.414917,624.210022 522.828247,625.554138 
	C525.958435,630.352295 528.564697,635.079102 531.861572,639.261536 
	C547.222473,658.748596 562.748352,678.105835 578.266663,697.468323 
	C588.719055,710.509888 599.256958,723.482849 609.901001,736.798279 
	C608.928223,738.004883 607.810974,738.899780 606.401672,739.920776 
z"/>
<path fill="#027ED8" opacity="1.000000" stroke="none" 
	d="
M561.853760,634.528931 
	C564.001709,638.206238 565.605957,641.820679 567.988037,644.816589 
	C587.830322,669.771606 607.815918,694.612610 627.902161,719.799133 
	C626.927734,721.339905 625.809448,722.569580 624.402100,723.922302 
	C618.856201,717.900024 613.459473,711.867981 608.370789,705.586487 
	C596.594360,691.049744 584.968872,676.390808 573.278564,661.784302 
	C566.448853,653.250854 559.598694,644.733521 552.806946,636.169983 
	C552.332581,635.571838 552.266663,634.649780 552.005371,633.521973 
	C555.223450,633.503540 558.447083,633.841431 561.853760,634.528931 
z"/>
<path fill="#0272DC" opacity="1.000000" stroke="none" 
	d="
M402.893005,484.657532 
	C402.250397,484.511688 401.667114,484.025208 401.069214,483.221863 
	C401.687164,483.375671 402.319733,483.846283 402.893005,484.657532 
z"/>
<path fill="#000000" opacity="1.000000" stroke="none" 
	d="
M826.285156,465.222046 
	C821.826599,467.321594 817.753479,470.349731 813.436218,470.751099 
	C804.549438,471.577271 795.532104,470.999573 786.285156,470.999573 
	C786.285156,453.727966 786.285156,436.674927 786.285156,419.016205 
	C796.412170,419.016205 806.708313,418.333862 816.830566,419.362213 
	C820.714966,419.756805 825.777100,423.234985 827.588928,426.719269 
	C834.161438,439.358032 834.325256,452.415436 826.285156,465.222046 
z"/>
<path fill="#000000" opacity="1.000000" stroke="none" 
	d="
M1538.000000,460.007874 
	C1538.386963,451.072906 1543.927734,445.388641 1551.486084,444.098389 
	C1558.814331,442.847351 1568.473267,446.620239 1570.261719,453.785004 
	C1573.506836,466.785919 1567.839111,477.909729 1553.090454,477.241943 
	C1543.070923,476.788330 1539.031616,468.599701 1538.000000,460.007874 
z"/>
<path fill="#000000" opacity="1.000000" stroke="none" 
	d="
M951.306396,467.235779 
	C947.658020,473.926514 941.200806,475.438599 935.052185,476.839203 
	C931.271057,477.700500 927.122498,477.164978 923.164124,476.891266 
	C922.067200,476.815460 920.334106,475.543762 920.193420,474.622253 
	C920.010681,473.425018 920.842468,471.149811 921.730896,470.862152 
	C927.452942,469.009583 933.296387,467.520935 939.126709,466.016876 
	C943.602661,464.862183 948.117920,463.860321 953.254333,462.638580 
	C952.713318,464.025513 952.141296,465.491791 951.306396,467.235779 
z"/>
<path fill="#000000" opacity="1.000000" stroke="none" 
	d="
M920.457520,452.477936 
	C926.607422,447.067413 933.547241,444.012238 941.446350,443.229340 
	C942.424194,443.132416 943.405090,443.029663 944.386230,443.008209 
	C947.903564,442.931274 951.531433,443.776428 951.813538,447.663086 
	C952.128174,451.997620 947.524780,451.216675 944.997253,451.829132 
	C942.013062,452.552277 938.715637,451.897552 935.561279,452.023285 
	C930.508972,452.224762 925.462646,452.576843 920.457520,452.477936 
z"/>
<path fill="#000000" opacity="1.000000" stroke="none" 
	d="
M1456.860107,467.406860 
	C1451.858643,475.971497 1441.851562,478.167633 1431.506592,476.397797 
	C1419.097046,474.274780 1414.915771,456.823517 1423.437622,447.287903 
	C1427.399292,442.854919 1433.449097,442.253784 1438.943237,442.719635 
	C1443.403076,443.097778 1448.365234,444.286011 1451.954224,446.774384 
	C1459.079224,451.714447 1459.031982,459.325104 1456.860107,467.406860 
z"/>
<path fill="#000000" opacity="1.000000" stroke="none" 
	d="
M1074.541016,630.173340 
	C1081.763550,629.839905 1088.874512,628.519165 1094.169189,634.655457 
	C1095.523438,636.225037 1096.784180,637.875366 1098.467407,639.958008 
	C1085.843262,639.958008 1074.219482,639.958008 1062.422607,639.958008 
	C1064.440552,634.303467 1069.005981,631.966980 1074.541016,630.173340 
z"/>
<path fill="#000000" opacity="1.000000" stroke="none" 
	d="
M1669.005859,450.000000 
	C1663.750854,450.000000 1658.994385,450.000000 1654.114380,450.000000 
	C1656.201538,443.566467 1663.783081,439.209381 1672.429565,439.140991 
	C1679.850586,439.082275 1686.825562,443.575867 1688.669922,450.000000 
	C1682.196655,450.000000 1675.850464,450.000000 1669.005859,450.000000 
z"/>
</svg>